<svg width="150" height="150" viewBox="0 0 150 150" fill="none" xmlns="http://www.w3.org/2000/svg">
<g clip-path="url(#clip0_477_6400)">
<path d="M14.6056 126.362L13.2885 121.167C10.9532 120.178 8.56388 119.32 6.13201 118.6L5.96576 121.014L5.29153 118.354C2.27557 117.492 0.223778 117.113 0.223778 117.113C0.223778 117.113 2.99457 127.652 8.80803 135.709L15.5812 136.899L10.3193 137.657C11.0506 138.537 11.8365 139.37 12.6723 140.151C21.1282 148 30.5468 151.602 33.7089 148.195C36.871 144.788 32.5795 135.663 24.1235 127.815C21.5021 125.382 18.2091 123.429 14.9126 121.892L14.6056 126.362Z" fill="#F2F2F2"/>
<path d="M27.1316 120.719L28.6893 115.592C27.2019 113.538 25.5998 111.569 23.8906 109.695L22.5004 111.675L23.2979 109.05C21.1614 106.754 19.6011 105.369 19.6011 105.369C19.6011 105.369 16.5261 115.823 17.3373 125.725L22.5205 130.244L17.623 128.174C17.7944 129.305 18.0367 130.425 18.3486 131.526C21.5302 142.616 27.7314 150.567 32.1992 149.285C36.667 148.003 37.7099 137.974 34.5283 126.884C33.542 123.446 31.7322 120.072 29.7049 117.053L27.1316 120.719Z" fill="#F2F2F2"/>
<path d="M104.581 35.5351H103.759V13.0274C103.759 11.3166 103.422 9.62257 102.767 8.04201C102.113 6.46146 101.153 5.02533 99.9435 3.81563C98.7337 2.60593 97.2976 1.64634 95.7171 0.991649C94.1365 0.336962 92.4425 0 90.7317 0H43.0445C39.5894 0 36.2758 1.37252 33.8327 3.81563C31.3896 6.25874 30.0171 9.5723 30.0171 13.0274V136.509C30.0171 138.219 30.354 139.913 31.0087 141.494C31.6634 143.075 32.623 144.511 33.8327 145.72C35.0424 146.93 36.4785 147.89 38.0591 148.544C39.6397 149.199 41.3337 149.536 43.0445 149.536H90.7317C94.1867 149.536 97.5003 148.163 99.9433 145.72C102.386 143.277 103.759 139.964 103.759 136.509V51.5565H104.58L104.581 35.5351Z" fill="#E6E6E6"/>
<path d="M91.2574 3.38818H85.0331C85.3194 4.09004 85.4286 4.85152 85.3513 5.60556C85.2739 6.35959 85.0123 7.08302 84.5894 7.71211C84.1666 8.34121 83.5955 8.85666 82.9266 9.21305C82.2576 9.56944 81.5112 9.75583 80.7532 9.7558H53.4337C52.6758 9.75576 51.9295 9.56932 51.2605 9.21291C50.5916 8.85649 50.0206 8.34103 49.5978 7.71195C49.175 7.08286 48.9134 6.35946 48.8361 5.60546C48.7587 4.85146 48.868 4.09001 49.1543 3.38818H43.3404C40.7602 3.38818 38.2857 4.41317 36.4612 6.23766C34.6367 8.06215 33.6117 10.5367 33.6117 13.1169V136.419C33.6117 138.999 34.6367 141.474 36.4612 143.298C38.2857 145.123 40.7602 146.148 43.3404 146.148H91.2574C93.8376 146.148 96.3121 145.123 98.1366 143.298C99.9611 141.474 100.986 138.999 100.986 136.419V13.1167C100.986 10.5365 99.961 8.06203 98.1365 6.23759C96.312 4.41314 93.8375 3.38818 91.2574 3.38818Z" fill="white"/>
<path d="M61.193 52.5051C61.1929 51.6433 61.4197 50.7966 61.8508 50.0502C62.2819 49.3039 62.9019 48.6843 63.6486 48.2538C62.9023 47.8228 62.0557 47.5958 61.1939 47.5957C60.3321 47.5956 59.4855 47.8224 58.7391 48.2532C57.9928 48.6841 57.373 49.3038 56.942 50.0501C56.5111 50.7964 56.2842 51.643 56.2842 52.5048C56.2842 53.3666 56.5111 54.2132 56.942 54.9596C57.373 55.7059 57.9928 56.3256 58.7391 56.7565C59.4855 57.1873 60.3321 57.4141 61.1939 57.414C62.0557 57.4139 62.9023 57.1869 63.6486 56.7559C62.902 56.3255 62.2819 55.706 61.8509 54.9597C61.4198 54.2135 61.1929 53.3669 61.193 52.5051Z" fill="#CCCCCC"/>
<path d="M67.3644 52.5051C67.3643 51.6433 67.5911 50.7965 68.0222 50.0502C68.4533 49.3039 69.0734 48.6843 69.82 48.2538C69.0737 47.8228 68.2272 47.5958 67.3654 47.5957C66.5036 47.5956 65.6569 47.8224 64.9106 48.2532C64.1642 48.6841 63.5444 49.3038 63.1135 50.0501C62.6825 50.7964 62.4557 51.643 62.4557 52.5048C62.4557 53.3666 62.6825 54.2132 63.1135 54.9596C63.5444 55.7059 64.1642 56.3256 64.9106 56.7565C65.6569 57.1873 66.5036 57.4141 67.3654 57.414C68.2272 57.4139 69.0737 57.1869 69.82 56.7559C69.0734 56.3255 68.4534 55.706 68.0223 54.9597C67.5912 54.2135 67.3643 53.3669 67.3644 52.5051Z" fill="#CCCCCC"/>
<path d="M73.3958 57.414C76.107 57.414 78.3049 55.2161 78.3049 52.5048C78.3049 49.7936 76.107 47.5957 73.3958 47.5957C70.6845 47.5957 68.4866 49.7936 68.4866 52.5048C68.4866 55.2161 70.6845 57.414 73.3958 57.414Z" fill="#6C63FF"/>
<path d="M81.6001 67.8382H52.9886C52.7162 67.8379 52.4551 67.7295 52.2625 67.5369C52.0699 67.3443 51.9615 67.0832 51.9612 66.8108V38.1993C51.9615 37.9269 52.0699 37.6658 52.2625 37.4731C52.4551 37.2805 52.7162 37.1722 52.9886 37.1719H81.6001C81.8725 37.1722 82.1337 37.2805 82.3263 37.4731C82.5189 37.6658 82.6272 37.9269 82.6275 38.1993V66.8108C82.6272 67.0832 82.5189 67.3443 82.3263 67.5369C82.1337 67.7295 81.8725 67.8379 81.6001 67.8382ZM52.9886 37.5831C52.8252 37.5832 52.6685 37.6482 52.5529 37.7638C52.4374 37.8794 52.3724 38.0361 52.3722 38.1995V66.811C52.3724 66.9744 52.4374 67.1311 52.5529 67.2467C52.6685 67.3622 52.8252 67.4272 52.9886 67.4274H81.6001C81.7636 67.4272 81.9202 67.3622 82.0358 67.2467C82.1514 67.1311 82.2164 66.9744 82.2165 66.811V38.1995C82.2164 38.0361 82.1514 37.8794 82.0358 37.7638C81.9202 37.6482 81.7636 37.5832 81.6001 37.5831H52.9886Z" fill="#CCCCCC"/>
<path d="M87.9886 89.77H44.1072V90.181H87.9886V89.77Z" fill="#CCCCCC"/>
<path d="M45.493 87.2042C46.2584 87.2042 46.8788 86.5838 46.8788 85.8184C46.8788 85.0531 46.2584 84.4326 45.493 84.4326C44.7277 84.4326 44.1072 85.0531 44.1072 85.8184C44.1072 86.5838 44.7277 87.2042 45.493 87.2042Z" fill="#6C63FF"/>
<path d="M87.9886 103.627H44.1072V104.038H87.9886V103.627Z" fill="#CCCCCC"/>
<path d="M45.493 101.062C46.2584 101.062 46.8788 100.441 46.8788 99.6758C46.8788 98.9105 46.2584 98.29 45.493 98.29C44.7277 98.29 44.1072 98.9105 44.1072 99.6758C44.1072 100.441 44.7277 101.062 45.493 101.062Z" fill="#6C63FF"/>
<path d="M87.1856 119.407H73.3179C73.0783 119.407 72.8487 119.312 72.6793 119.142C72.5099 118.973 72.4146 118.743 72.4143 118.504V113.643C72.4146 113.404 72.5099 113.174 72.6793 113.005C72.8487 112.835 73.0783 112.74 73.3179 112.74H87.1856C87.4251 112.74 87.6548 112.835 87.8242 113.005C87.9936 113.174 88.0888 113.404 88.0891 113.643V118.504C88.0888 118.743 87.9936 118.973 87.8242 119.142C87.6548 119.312 87.4251 119.407 87.1856 119.407Z" fill="#6C63FF"/>
<path d="M50.0134 87.2042C50.7788 87.2042 51.3992 86.5838 51.3992 85.8184C51.3992 85.0531 50.7788 84.4326 50.0134 84.4326C49.2481 84.4326 48.6276 85.0531 48.6276 85.8184C48.6276 86.5838 49.2481 87.2042 50.0134 87.2042Z" fill="#6C63FF"/>
<path d="M54.5338 87.2042C55.2992 87.2042 55.9196 86.5838 55.9196 85.8184C55.9196 85.0531 55.2992 84.4326 54.5338 84.4326C53.7685 84.4326 53.148 85.0531 53.148 85.8184C53.148 86.5838 53.7685 87.2042 54.5338 87.2042Z" fill="#6C63FF"/>
<path d="M50.0134 101.062C50.7788 101.062 51.3992 100.441 51.3992 99.6758C51.3992 98.9105 50.7788 98.29 50.0134 98.29C49.2481 98.29 48.6276 98.9105 48.6276 99.6758C48.6276 100.441 49.2481 101.062 50.0134 101.062Z" fill="#6C63FF"/>
<path d="M54.5338 101.062C55.2992 101.062 55.9196 100.441 55.9196 99.6758C55.9196 98.9105 55.2992 98.29 54.5338 98.29C53.7685 98.29 53.148 98.9105 53.148 99.6758C53.148 100.441 53.7685 101.062 54.5338 101.062Z" fill="#6C63FF"/>
<path d="M149.218 150H5.05862C4.75002 150 4.50004 149.89 4.50004 149.755C4.50004 149.621 4.75002 149.511 5.05862 149.511H149.218C149.526 149.511 149.776 149.62 149.776 149.755C149.776 149.891 149.526 150 149.218 150Z" fill="#3F3D56"/>
<path d="M113.601 98.2751C113.699 98.3202 113.794 98.373 113.884 98.4332L122.89 94.5896L123.211 92.2173L126.81 92.1953L126.597 97.6362L114.711 100.78C114.686 100.862 114.656 100.943 114.621 101.022C114.449 101.389 114.173 101.697 113.826 101.907C113.48 102.117 113.08 102.22 112.675 102.203C112.27 102.187 111.88 102.051 111.552 101.813C111.225 101.575 110.975 101.245 110.834 100.865C110.693 100.486 110.667 100.073 110.76 99.6787C110.853 99.2846 111.06 98.9266 111.356 98.6499C111.651 98.3732 112.022 98.1899 112.422 98.1233C112.821 98.0566 113.231 98.1094 113.601 98.2751Z" fill="#FFB8B8"/>
<path d="M128.118 147.58H125.657L124.486 138.085L128.119 138.085L128.118 147.58Z" fill="#FFB8B8"/>
<path d="M123.898 146.876H128.646V149.865H120.909C120.909 149.072 121.224 148.312 121.785 147.751C122.345 147.191 123.106 146.876 123.898 146.876Z" fill="#2F2E41"/>
<path d="M137.692 146.884L135.242 147.125L133.145 137.791L136.761 137.435L137.692 146.884Z" fill="#FFB8B8"/>
<path d="M133.423 146.598L138.148 146.132L138.441 149.107L130.742 149.865C130.703 149.475 130.742 149.08 130.856 148.705C130.97 148.329 131.157 147.979 131.406 147.676C131.655 147.373 131.961 147.121 132.307 146.936C132.653 146.751 133.033 146.636 133.423 146.598Z" fill="#2F2E41"/>
<path d="M128.803 82.147C131.527 82.147 133.735 79.9392 133.735 77.2156C133.735 74.4921 131.527 72.2842 128.803 72.2842C126.08 72.2842 123.872 74.4921 123.872 77.2156C123.872 79.9392 126.08 82.147 128.803 82.147Z" fill="#FFB8B8"/>
<path d="M125.107 145.659C124.895 145.66 124.69 145.586 124.528 145.45C124.366 145.314 124.257 145.125 124.22 144.917C122.946 137.844 118.781 114.718 118.682 114.078C118.68 114.063 118.678 114.048 118.679 114.033V112.309C118.678 112.246 118.698 112.185 118.735 112.134L119.285 111.363C119.311 111.326 119.345 111.296 119.385 111.274C119.425 111.252 119.469 111.24 119.514 111.238C122.651 111.091 132.924 110.66 133.42 111.28C133.918 111.903 133.742 113.791 133.702 114.163L133.704 114.202L138.319 143.716C138.355 143.951 138.297 144.191 138.157 144.384C138.018 144.577 137.808 144.707 137.573 144.747L134.69 145.222C134.476 145.256 134.256 145.212 134.071 145.098C133.885 144.985 133.747 144.808 133.681 144.601C132.79 141.752 129.8 132.169 128.764 128.46C128.758 128.437 128.743 128.417 128.723 128.403C128.702 128.39 128.678 128.384 128.654 128.388C128.63 128.391 128.608 128.403 128.592 128.422C128.576 128.44 128.567 128.464 128.568 128.488C128.619 132.023 128.744 141.042 128.788 144.157L128.792 144.492C128.794 144.719 128.711 144.939 128.559 145.108C128.406 145.276 128.197 145.382 127.97 145.403L125.191 145.656C125.163 145.658 125.134 145.659 125.107 145.659Z" fill="#2F2E41"/>
<path d="M125.674 84.0862C124.813 84.5978 124.298 85.5379 124.003 86.4946C123.455 88.2657 123.126 90.0969 123.022 91.9477L122.71 97.4894L118.844 112.181C122.194 115.016 124.127 114.371 128.638 112.052C133.148 109.733 133.664 112.826 133.664 112.826L134.566 100.325L135.854 86.6655C135.565 86.3172 135.238 86.0024 134.878 85.727C133.687 84.8008 132.301 84.157 130.825 83.8441C129.349 83.5313 127.821 83.5575 126.357 83.9209L125.674 84.0862Z" fill="#6C63FF"/>
<path d="M124.418 101.243C124.522 101.282 124.623 101.329 124.719 101.384L133.624 96.927L133.771 94.5125L137.444 94.2593L137.641 99.7632L125.742 103.698C125.645 104.115 125.423 104.492 125.106 104.78C124.789 105.068 124.392 105.252 123.968 105.309C123.544 105.365 123.113 105.292 122.731 105.097C122.35 104.903 122.037 104.597 121.834 104.22C121.631 103.843 121.548 103.414 121.595 102.988C121.642 102.563 121.817 102.162 122.098 101.839C122.378 101.516 122.75 101.285 123.165 101.179C123.579 101.072 124.016 101.095 124.418 101.243Z" fill="#FFB8B8"/>
<path d="M135.79 86.7278C137.981 87.5011 138.367 95.8782 138.367 95.8782C135.789 94.4606 132.696 96.7804 132.696 96.7804C132.696 96.7804 132.052 94.5895 131.279 91.7544C131.045 90.9569 131.017 90.1133 131.198 89.3021C131.378 88.4909 131.76 87.7386 132.31 87.115C132.31 87.115 133.599 85.9541 135.79 86.7278Z" fill="#6C63FF"/>
<path d="M133.225 78.5197C132.611 78.0281 131.772 78.9216 131.772 78.9216L131.281 74.4977C131.281 74.4977 128.209 74.8657 126.243 74.3749C124.276 73.884 123.969 76.1568 123.969 76.1568C123.868 75.2388 123.847 74.3135 123.908 73.3919C124.031 72.2859 125.628 71.1799 128.455 70.4425C131.281 69.7051 132.755 72.9003 132.755 72.9003C134.722 73.8833 133.84 79.0113 133.225 78.5197Z" fill="#2F2E41"/>
</g>
<defs>
<clipPath id="clip0_477_6400">
<rect width="149.552" height="150" fill="white" transform="translate(0.223778)"/>
</clipPath>
</defs>
</svg>
