<svg width="24" height="24" viewBox="0 0 24 24" fill="none" xmlns="http://www.w3.org/2000/svg">
<path d="M6.43873 15.083C6.39176 14.9747 6.3489 14.8633 6.31119 14.7501C6.25119 14.5708 6.05919 14.4727 5.87747 14.5338C5.69816 14.5934 5.60079 14.7875 5.66079 14.9671C5.70467 15.0991 5.75404 15.2284 5.80924 15.3549C5.86513 15.4849 5.9913 15.562 6.12399 15.562C6.16959 15.562 6.21587 15.5534 6.25976 15.5339C6.43393 15.4588 6.51381 15.2572 6.43873 15.083Z" fill="white"/>
<path d="M10.3465 17.6796C9.01723 17.6796 7.78568 17.0628 6.96797 15.9879C6.85311 15.8374 6.6378 15.8086 6.48763 15.9231C6.33711 16.0376 6.30797 16.2526 6.42248 16.4031C7.37117 17.6501 8.80123 18.3653 10.3465 18.3653C10.5361 18.3653 10.6893 18.212 10.6893 18.0224C10.6893 17.8328 10.5357 17.6796 10.3465 17.6796Z" fill="white"/>
<path d="M17.9636 21.457H3.56364C3.18513 21.457 2.87793 21.7639 2.87793 22.1427C2.87793 22.5213 3.18513 22.8285 3.56364 22.8285H17.9636C18.3422 22.8285 18.6494 22.5213 18.6494 22.1427C18.6494 21.7639 18.3422 21.457 17.9636 21.457Z" fill="white"/>
<path d="M21.1699 10.1842C21.136 9.83282 20.8404 9.45705 20.4873 9.45705H18.0287V9.14299C18.0287 8.38562 17.6611 7.3999 16.9038 7.3999H3.88307C3.1257 7.3999 2.6001 8.04276 2.6001 8.80013V13.0437C2.6001 17.2951 6.13015 20.7538 10.3816 20.7538C13.313 20.7538 15.9026 19.1092 17.2075 16.6951C17.898 16.5933 19.9267 16.1938 20.6759 15.1948C21.4607 14.149 21.2563 11.0825 21.1699 10.1842ZM3.97153 10.8285H16.6572V12.1999H3.97153V10.8285ZM16.6572 8.77133V10.1428H3.97153V8.77133H16.6572ZM10.3144 19.3824C6.81381 19.3824 3.97153 16.5446 3.97153 13.0437V12.8856H16.6572V13.0437C16.6572 16.5446 13.815 19.3824 10.3144 19.3824ZM19.5959 14.3184C19.3583 14.6352 18.5299 14.9633 17.7921 15.1629C17.9882 14.484 18.0283 13.7849 18.0283 13.044V10.8288H19.8527C19.9418 12.5428 19.8708 13.9512 19.5959 14.3184Z" fill="white"/>
<path d="M10.1427 6.92867C10.5213 6.92867 10.8285 6.62147 10.8285 6.24295V1.78581C10.8285 1.4073 10.5213 1.1001 10.1427 1.1001C9.76423 1.1001 9.45703 1.4073 9.45703 1.78581V6.24295C9.45703 6.62181 9.76423 6.92867 10.1427 6.92867Z" fill="white"/>
<path d="M13.5715 6.92867C13.95 6.92867 14.2572 6.62147 14.2572 6.24295V1.78581C14.2572 1.4073 13.95 1.1001 13.5715 1.1001C13.1929 1.1001 12.8857 1.4073 12.8857 1.78581V6.24295C12.8857 6.62181 13.1929 6.92867 13.5715 6.92867Z" fill="white"/>
<path d="M6.71452 6.92867C7.09304 6.92867 7.40024 6.62147 7.40024 6.24295V1.78581C7.40024 1.4073 7.09304 1.1001 6.71452 1.1001C6.33601 1.1001 6.02881 1.4073 6.02881 1.78581V6.24295C6.02881 6.62181 6.33601 6.92867 6.71452 6.92867Z" fill="white"/>
</svg>
