<svg width="41" height="40" viewBox="0 0 41 40" fill="none" xmlns="http://www.w3.org/2000/svg">
<path d="M20.9166 21.5835V23.1335C20.9166 23.7168 20.6166 24.2668 20.1 24.5668L18.8333 25.3335" stroke="white" stroke-width="1.5" stroke-miterlimit="10" stroke-linecap="round" stroke-linejoin="round"/>
<path d="M13.8347 36.6667H27.168C33.868 36.6667 35.068 33.9833 35.418 30.7167L36.668 17.3833C37.118 13.3167 35.9513 10 28.8347 10H12.168C5.05134 10 3.88467 13.3167 4.33467 17.3833L5.58467 30.7167C5.93467 33.9833 7.13467 36.6667 13.8347 36.6667Z" stroke="white" stroke-width="1.5" stroke-miterlimit="10" stroke-linecap="round" stroke-linejoin="round"/>
<path opacity="0.7" d="M13.8333 10.0002V8.66683C13.8333 5.71683 13.8333 3.3335 19.1666 3.3335H21.8333C27.1666 3.3335 27.1666 5.71683 27.1666 8.66683V10.0002" stroke="white" stroke-width="1.5" stroke-miterlimit="10" stroke-linecap="round" stroke-linejoin="round"/>
<g opacity="0.7">
<path d="M20.5 30.3338C24.1818 30.3338 27.1666 27.349 27.1666 23.6672C27.1666 19.9853 24.1818 17.0005 20.5 17.0005C16.8181 17.0005 13.8333 19.9853 13.8333 23.6672C13.8333 27.349 16.8181 30.3338 20.5 30.3338Z" stroke="white" stroke-width="1.5" stroke-miterlimit="10" stroke-linecap="round" stroke-linejoin="round"/>
<path d="M36.583 18.3335C33.6996 20.4335 30.4997 21.9002 27.183 22.7335" stroke="white" stroke-width="1.5" stroke-miterlimit="10" stroke-linecap="round" stroke-linejoin="round"/>
<path d="M4.86523 18.7827C7.64857 20.6827 10.6819 22.0327 13.8319 22.7994" stroke="white" stroke-width="1.5" stroke-miterlimit="10" stroke-linecap="round" stroke-linejoin="round"/>
</g>
</svg>
