<svg width="69" height="69" viewBox="0 0 69 69" fill="none" xmlns="http://www.w3.org/2000/svg">
<g id="Group 810">
<path id="Ellipse 47" d="M32 5C25.671 5 19.4841 6.87677 14.2218 10.393C8.95938 13.9092 4.85786 18.9069 2.43586 24.7541C0.0138508 30.6014 -0.619856 37.0355 0.614871 43.2429C1.8496 49.4503 4.8973 55.1521 9.37258 59.6274C13.8479 64.1027 19.5497 67.1504 25.7571 68.3851C31.9645 69.6199 38.3986 68.9861 44.2459 66.5641C50.0931 64.1421 55.0908 60.0406 58.607 54.7782C62.1232 49.5159 64 43.329 64 37H54.4C54.4 41.4303 53.0863 45.7611 50.6249 49.4448C48.1636 53.1284 44.6652 55.9995 40.5721 57.6949C36.479 59.3903 31.9752 59.8339 27.63 58.9696C23.2848 58.1053 19.2935 55.9719 16.1608 52.8392C13.0281 49.7065 10.8947 45.7152 10.0304 41.37C9.1661 37.0248 9.6097 32.521 11.3051 28.4279C13.0005 24.3348 15.8716 20.8364 19.5552 18.3751C23.2389 15.9137 27.5697 14.6 32 14.6L32 5Z" fill="#252525"/>
<path id="Ellipse 48" d="M37 0C41.2023 5.01119e-08 45.3635 0.827705 49.2459 2.43586C53.1283 4.04401 56.6559 6.40111 59.6274 9.37259C62.5989 12.3441 64.956 15.8717 66.5641 19.7541C68.1723 23.6366 69 27.7977 69 32L56.2 32C56.2 29.4786 55.7034 26.9819 54.7385 24.6525C53.7736 22.323 52.3593 20.2064 50.5765 18.4236C48.7936 16.6407 46.677 15.2264 44.3475 14.2615C42.0181 13.2966 39.5214 12.8 37 12.8L37 0Z" fill="#D0342C"/>
</g>
</svg>
