<svg width="46" height="48" viewBox="0 0 46 48" fill="none" xmlns="http://www.w3.org/2000/svg">
<path d="M24.34 29.28C23.38 30.6 22.0333 31.26 20.3 31.26C18.5667 31.26 17.2133 30.6 16.24 29.28C15.28 27.96 14.8 26.2 14.8 24C14.8 21.8 15.28 20.04 16.24 18.72C17.2133 17.4 18.5667 16.74 20.3 16.74C22.0333 16.74 23.38 17.4 24.34 18.72C25.3133 20.04 25.8 21.8 25.8 24C25.8 26.2 25.3133 27.96 24.34 29.28ZM20.3 29.02C21.34 29.02 22.1333 28.5867 22.68 27.72C23.2267 26.8533 23.5 25.6133 23.5 24C23.5 22.3867 23.2267 21.1467 22.68 20.28C22.1333 19.4133 21.34 18.98 20.3 18.98C19.2733 18.98 18.48 19.4133 17.92 20.28C17.3733 21.1467 17.1 22.3867 17.1 24C17.1 25.6133 17.3733 26.8533 17.92 27.72C18.48 28.5867 19.2733 29.02 20.3 29.02ZM30.147 17H32.147V31H29.847V19.46L27.027 20.26L26.467 18.3L30.147 17Z" fill="white"/>
<circle cx="24" cy="24" r="20" stroke="#252525" stroke-width="4"/>
<path d="M24 46C11.8497 46 2 36.1503 2 24C2 11.8497 11.8497 2 24 2" stroke="#00CE53" stroke-width="4"/>
</svg>
