<svg width="210" height="150" viewBox="0 0 210 150" fill="none" xmlns="http://www.w3.org/2000/svg">
<g clip-path="url(#clip0_1014_814)">
<path d="M203.791 43.9561H88.8766C87.259 43.9575 85.7081 44.5992 84.5644 45.7404C83.4206 46.8815 82.7773 48.4287 82.7759 50.0425V68.6222C82.7773 70.236 83.4206 71.7832 84.5644 72.9243C85.7081 74.0655 87.259 74.7072 88.8766 74.7086H203.791C205.409 74.7072 206.96 74.0655 208.104 72.9243C209.247 71.7832 209.891 70.236 209.892 68.6222V50.0425C209.891 48.4287 209.247 46.8815 208.104 45.7404C206.96 44.5992 205.409 43.9575 203.791 43.9561Z" fill="#F2F2F2"/>
<path d="M46.0839 150H0.365745C0.268743 150 0.175709 149.962 0.107118 149.893C0.0385279 149.825 0 149.732 0 149.635C0 149.538 0.0385279 149.446 0.107118 149.377C0.175709 149.309 0.268743 149.27 0.365745 149.27H46.0839C46.1809 149.27 46.2739 149.309 46.3425 149.377C46.4111 149.446 46.4496 149.538 46.4496 149.635C46.4496 149.732 46.4111 149.825 46.3425 149.893C46.2739 149.962 46.1809 150 46.0839 150Z" fill="#3F3D56"/>
<path d="M39.3709 35.7513C38.9469 36.0183 38.5868 36.3748 38.3158 36.7956C38.0449 37.2165 37.8697 37.6915 37.8027 38.1873C37.7357 38.683 37.7784 39.1873 37.9279 39.6648C38.0774 40.1422 38.33 40.5812 38.6679 40.9507L35.3442 48.0316L39.1647 51.0962L43.7177 41.0308C44.3023 40.4233 44.6432 39.623 44.6759 38.7814C44.7085 37.9399 44.4306 37.1156 43.8949 36.4649C43.3591 35.8141 42.6026 35.382 41.7688 35.2505C40.935 35.1189 40.0818 35.2971 39.3709 35.7513Z" fill="#FFB8B8"/>
<path d="M20.2713 38.6246C21.3232 37.9942 22.5779 37.792 23.7752 38.0597C24.9726 38.3275 26.0207 39.0448 26.7022 40.0628L33.5031 50.2222L35.8642 45.0293C36.0116 44.705 36.2728 44.4457 36.5985 44.3002C36.9242 44.1546 37.292 44.1329 37.6327 44.239L41.1962 45.3496C41.3824 45.4076 41.5551 45.5022 41.7041 45.6278C41.8531 45.7533 41.9754 45.9074 42.0639 46.0808C42.1524 46.2542 42.2052 46.4435 42.2192 46.6376C42.2333 46.8317 42.2083 47.0266 42.1457 47.2109L39.7063 54.3972C39.3978 55.3062 38.8822 56.1315 38.2001 56.8083C37.518 57.4851 36.688 57.995 35.7752 58.2979C34.8623 58.6008 33.8916 58.6885 32.939 58.5541C31.9865 58.4197 31.0782 58.0669 30.2853 57.5234C29.9148 57.2694 29.573 56.9761 29.2658 56.6487L19.2435 45.965C18.7568 45.4461 18.3926 44.8253 18.1775 44.1479C17.9625 43.4705 17.902 42.7537 18.0005 42.0499C18.0991 41.3462 18.3541 40.6733 18.747 40.0807C19.1399 39.488 19.6607 38.9905 20.2713 38.6246Z" fill="#CCCCCC"/>
<path d="M42.2722 28.1274C42.4547 28.1319 42.628 28.2086 42.7539 28.3406C42.8797 28.4726 42.9479 28.649 42.9434 28.8311L42.8847 31.1893L43.0032 31.2001L42.9607 32.8017L42.8449 32.7873L42.6346 41.2353C42.6274 41.5245 42.515 41.8011 42.3183 42.0137C42.1217 42.2262 41.8543 42.3601 41.566 42.3904L36.1815 42.9559C36.0504 42.9697 35.9179 42.9547 35.7932 42.912C35.6686 42.8692 35.5548 42.7998 35.4598 42.7086C35.3649 42.6173 35.2911 42.5065 35.2437 42.3838C35.1962 42.2611 35.1763 42.1295 35.1852 41.9983L36.0018 29.9689C36.019 29.7162 36.1218 29.4769 36.2933 29.2902C36.4649 29.1036 36.695 28.9807 36.9458 28.9419L42.1438 28.1362C42.1862 28.1293 42.2292 28.1263 42.2722 28.1274Z" fill="#3F3D56"/>
<path d="M38.1049 29.3794L40.8375 28.9559C40.8867 28.9483 40.932 28.9247 40.9664 28.8888C41.0008 28.8529 41.0224 28.8067 41.0278 28.7573C41.0339 28.7014 41.0583 28.6491 41.0973 28.6084C41.1362 28.5678 41.1875 28.541 41.2432 28.5324L41.8189 28.4432C41.8974 28.431 41.9777 28.4362 42.054 28.4583C42.1303 28.4805 42.2008 28.5191 42.2606 28.5714C42.3203 28.6237 42.3678 28.6885 42.3997 28.7611C42.4316 28.8337 42.4472 28.9124 42.4453 28.9917L42.1494 41.24C42.1457 41.392 42.0861 41.5373 41.9819 41.6482C41.8777 41.7591 41.7361 41.8279 41.5843 41.8413L36.2039 42.3186C36.1352 42.3247 36.0661 42.3159 36.0012 42.2929C35.9362 42.2699 35.877 42.2331 35.8276 42.1852C35.7782 42.1373 35.7398 42.0793 35.7149 42.0152C35.69 41.9511 35.6793 41.8824 35.6835 41.8138L36.4095 29.8955C36.4202 29.7199 36.4907 29.5532 36.6095 29.4231C36.7282 29.2931 36.888 29.2074 37.0622 29.1804L37.669 29.0864C37.6913 29.181 37.7486 29.2638 37.8294 29.3181C37.9102 29.3725 38.0086 29.3944 38.1049 29.3794Z" fill="white"/>
<path d="M25.4272 145.571L29.6084 145.57L31.597 129.48L25.4258 129.481L25.4272 145.571Z" fill="#FFB8B8"/>
<path d="M37.6729 149.443L24.5317 149.445L24.5313 144.379L32.5951 144.378C33.2619 144.378 33.9221 144.509 34.5382 144.764C35.1542 145.018 35.7139 145.391 36.1854 145.862C36.6569 146.332 37.031 146.89 37.2862 147.505C37.5414 148.119 37.6728 148.778 37.6729 149.443Z" fill="#2F2E41"/>
<path d="M12.5767 145.571L16.7579 145.57L18.7464 129.48L12.5752 129.481L12.5767 145.571Z" fill="#FFB8B8"/>
<path d="M24.8218 149.443L11.6807 149.445L11.6802 144.379L19.7441 144.378C21.0906 144.378 22.3821 144.912 23.3344 145.862C24.2866 146.812 24.8217 148.1 24.8218 149.443Z" fill="#2F2E41"/>
<path d="M24.8219 33.1562C29.7831 33.1562 33.805 29.1438 33.805 24.1942C33.805 19.2446 29.7831 15.2322 24.8219 15.2322C19.8607 15.2322 15.8389 19.2446 15.8389 24.1942C15.8389 29.1438 19.8607 33.1562 24.8219 33.1562Z" fill="#FFB8B8"/>
<path d="M29.4452 48.172C29.3718 45.8679 28.7216 43.6187 27.5539 41.6294C26.3861 39.6402 24.738 37.9741 22.7595 36.783C20.4388 35.4187 17.8985 34.8866 15.8775 36.9029C14.664 38.1439 13.6922 39.5991 13.0115 41.1944C11.1421 45.5416 11.0198 50.4395 12.6699 54.8742L17.48 68.132L28.613 69.3353C28.8221 69.3578 29.0337 69.3352 29.2332 69.2688C29.4328 69.2025 29.6156 69.094 29.7693 68.9507C29.923 68.8075 30.044 68.6328 30.1239 68.4387C30.2038 68.2446 30.2408 68.0356 30.2324 67.8259L29.4452 48.172Z" fill="#2F2E41"/>
<path d="M18.1862 66.4993C18.1862 66.4993 9.86864 69.597 12.0432 82.7144C13.9946 94.4851 12.4439 133.554 12.1049 141.452C12.0888 141.828 12.2193 142.196 12.4692 142.479C12.719 142.761 13.0688 142.936 13.4451 142.967L18.3004 143.371C18.6807 143.403 19.0583 143.285 19.3527 143.042C19.6471 142.8 19.835 142.453 19.8763 142.074L22.3838 119.096C22.3936 119.006 22.4368 118.923 22.5048 118.862C22.5729 118.802 22.6609 118.77 22.7519 118.771C22.8428 118.772 22.93 118.807 22.9966 118.868C23.0631 118.93 23.1042 119.014 23.1119 119.105L24.9803 141.215C25.0118 141.588 25.1854 141.934 25.4652 142.183C25.7451 142.431 26.1099 142.563 26.4844 142.552L30.5625 142.423C30.7547 142.417 30.9438 142.373 31.119 142.294C31.2942 142.215 31.4521 142.102 31.5836 141.962C31.7151 141.822 31.8176 141.658 31.8854 141.478C31.9532 141.299 31.9848 141.108 31.9785 140.916L29.5762 68.0314L18.1862 66.4993Z" fill="#2F2E41"/>
<path d="M26.6248 23.6039C29.6291 24.8331 33.4658 23.3972 34.9184 20.4998C36.3709 17.6024 35.2214 13.6783 32.4334 12.0173C29.6455 10.3564 25.6375 11.2077 23.7696 13.8577C22.2502 11.1266 18.2696 10.4304 15.5366 11.9542C12.8036 13.4781 11.315 16.67 11.1384 19.7886C10.9618 22.9072 11.9122 25.9794 13.0715 28.881C14.9467 33.5744 20.9836 36.1015 25.6543 34.1483C23.5161 30.9711 23.9382 26.3216 26.6248 23.6039Z" fill="#2F2E41"/>
<path d="M38.7317 36.8377C38.6517 36.8378 38.5739 36.812 38.5099 36.7642L38.5059 36.7612L37.6707 36.1238C37.632 36.0942 37.5996 36.0573 37.5752 36.0152C37.5508 35.9731 37.535 35.9266 37.5286 35.8784C37.5222 35.8302 37.5254 35.7812 37.538 35.7343C37.5506 35.6873 37.5723 35.6432 37.602 35.6046C37.6317 35.5661 37.6686 35.5337 37.7108 35.5093C37.753 35.485 37.7996 35.4692 37.848 35.4628C37.8963 35.4565 37.9454 35.4597 37.9925 35.4722C38.0396 35.4848 38.0837 35.5065 38.1224 35.5361L38.6634 35.9499L39.9417 34.2861C39.9714 34.2475 40.0083 34.2151 40.0505 34.1908C40.0927 34.1665 40.1393 34.1507 40.1876 34.1443C40.2359 34.1379 40.285 34.1411 40.332 34.1537C40.3791 34.1662 40.4232 34.1879 40.4619 34.2175C40.5399 34.2773 40.5913 34.3656 40.6041 34.463C40.617 34.5603 40.5906 34.6587 40.5308 34.7366L39.0272 36.6929C38.9924 36.7379 38.9477 36.7744 38.8965 36.7994C38.8453 36.8245 38.789 36.8374 38.732 36.8373L38.7317 36.8377Z" fill="#4B4B4B"/>
<path d="M203.899 0H88.9845C87.367 0.0014618 85.8161 0.643185 84.6723 1.7843C83.5285 2.92541 82.8853 4.47267 82.8838 6.08645V24.6661C82.8853 26.2799 83.5285 27.8272 84.6723 28.9683C85.8161 30.1094 87.367 30.7511 88.9845 30.7526H203.899C205.517 30.7511 207.068 30.1094 208.211 28.9683C209.355 27.8272 209.998 26.2799 210 24.6661V6.08645C209.998 4.47267 209.355 2.92541 208.211 1.78429C207.068 0.64318 205.517 0.0014618 203.899 0ZM209.358 24.6661C209.356 26.1098 208.78 27.4938 207.757 28.5146C206.733 29.5354 205.346 30.1098 203.899 30.1119H88.9845C87.5375 30.1099 86.1502 29.5355 85.127 28.5146C84.1038 27.4938 83.528 26.1098 83.526 24.6661V6.08645C83.528 4.64277 84.1038 3.2588 85.127 2.23796C86.1502 1.21713 87.5375 0.64272 88.9845 0.640676H203.899C205.346 0.64272 206.733 1.21713 207.757 2.23796C208.78 3.2588 209.356 4.64277 209.358 6.08645V24.6661Z" fill="#3F3D56"/>
<path d="M112.37 25.9698C110.27 25.9698 108.217 25.3485 106.471 24.1845C104.724 23.0205 103.363 21.366 102.56 19.4303C101.756 17.4946 101.546 15.3646 101.955 13.3096C102.365 11.2547 103.376 9.36706 104.861 7.88552C106.346 6.40398 108.239 5.39504 110.298 4.98628C112.358 4.57752 114.493 4.7873 116.433 5.5891C118.374 6.39089 120.032 7.74869 121.199 9.49079C122.365 11.2329 122.988 13.281 122.988 15.3762C122.985 18.1848 121.865 20.8775 119.875 22.8634C117.884 24.8494 115.185 25.9666 112.37 25.9698Z" fill="#4B4B4B"/>
<path d="M188.22 24.0253H133.029C132.347 24.0253 131.694 23.7553 131.212 23.2747C130.731 22.7941 130.46 22.1423 130.46 21.4626C130.46 20.7829 130.731 20.1311 131.212 19.6505C131.694 19.1699 132.347 18.8999 133.029 18.8999H188.22C188.902 18.8999 189.555 19.1699 190.037 19.6505C190.519 20.1311 190.789 20.7829 190.789 21.4626C190.789 22.1423 190.519 22.7941 190.037 23.2747C189.555 23.7553 188.902 24.0253 188.22 24.0253Z" fill="#CCCCCC"/>
<path d="M151.295 13.134H133.029C132.347 13.134 131.694 12.864 131.212 12.3834C130.731 11.9028 130.46 11.2509 130.46 10.5713C130.46 9.89159 130.731 9.23976 131.212 8.75916C131.694 8.27855 132.347 8.00854 133.029 8.00854H151.295C151.976 8.00854 152.63 8.27855 153.111 8.75916C153.593 9.23976 153.864 9.89159 153.864 10.5713C153.864 11.2509 153.593 11.9028 153.111 12.3834C152.63 12.864 151.976 13.134 151.295 13.134Z" fill="#CCCCCC"/>
<path d="M111.827 19.1026C111.564 19.1031 111.308 19.0181 111.097 18.8604L111.084 18.8506L108.332 16.7502C108.204 16.6528 108.097 16.5313 108.016 16.3925C107.935 16.2537 107.883 16.1005 107.862 15.9415C107.841 15.7825 107.851 15.6208 107.892 15.4659C107.934 15.3109 108.006 15.1656 108.103 15.0383C108.201 14.911 108.323 14.8042 108.463 14.724C108.602 14.6438 108.756 14.5918 108.915 14.5709C109.074 14.55 109.236 14.5607 109.392 14.6024C109.547 14.644 109.692 14.7158 109.82 14.8135L111.602 16.1773L115.815 10.6946C115.912 10.5675 116.034 10.4609 116.173 10.3807C116.312 10.3006 116.466 10.2485 116.625 10.2275C116.784 10.2066 116.946 10.2171 117.101 10.2585C117.256 10.2999 117.401 10.3713 117.529 10.4688L117.529 10.469L117.503 10.5053L117.53 10.469C117.787 10.6661 117.955 10.9569 117.998 11.2776C118.04 11.5982 117.953 11.9225 117.756 12.1794L112.801 18.6254C112.687 18.7739 112.539 18.8941 112.371 18.9766C112.202 19.0591 112.016 19.1018 111.829 19.1012L111.827 19.1026Z" fill="white"/>
<path d="M154.524 49.9897H39.609C37.9915 49.9912 36.4406 50.6329 35.2968 51.774C34.153 52.9152 33.5098 54.4624 33.5083 56.0762V74.6559C33.5098 76.2696 34.153 77.8169 35.2968 78.958C36.4406 80.0991 37.9915 80.7409 39.609 80.7423H154.524C156.141 80.7409 157.692 80.0991 158.836 78.958C159.98 77.8169 160.623 76.2696 160.624 74.6559V56.0762C160.623 54.4624 159.98 52.9152 158.836 51.774C157.692 50.6329 156.141 49.9912 154.524 49.9897Z" fill="white"/>
<path d="M154.524 49.9897H39.609C37.9915 49.9912 36.4406 50.6329 35.2968 51.774C34.153 52.9152 33.5098 54.4624 33.5083 56.0762V74.6559C33.5098 76.2696 34.153 77.8169 35.2968 78.958C36.4406 80.0991 37.9915 80.7409 39.609 80.7423H154.524C156.141 80.7409 157.692 80.0991 158.836 78.958C159.98 77.8169 160.623 76.2696 160.624 74.6559V56.0762C160.623 54.4624 159.98 52.9152 158.836 51.774C157.692 50.6329 156.141 49.9912 154.524 49.9897ZM159.982 74.6559C159.98 76.0996 159.404 77.4835 158.381 78.5044C157.358 79.5252 155.971 80.0996 154.524 80.1016H39.609C38.162 80.0996 36.7747 79.5252 35.7515 78.5044C34.7283 77.4835 34.1525 76.0996 34.1505 74.6559V56.0762C34.1525 54.6325 34.7283 53.2485 35.7515 52.2277C36.7747 51.2069 38.162 50.6325 39.609 50.6304H154.524C155.971 50.6325 157.358 51.2069 158.381 52.2277C159.404 53.2485 159.98 54.6325 159.982 56.0762V74.6559Z" fill="#3F3D56"/>
<path d="M62.9945 75.9595C60.8943 75.9595 58.8414 75.3382 57.0952 74.1742C55.349 73.0102 53.988 71.3557 53.1843 69.42C52.3806 67.4843 52.1703 65.3543 52.58 63.2993C52.9897 61.2444 54.001 59.3568 55.486 57.8753C56.971 56.3937 58.863 55.3848 60.9228 54.976C62.9826 54.5673 65.1176 54.777 67.0578 55.5788C68.9981 56.3806 70.6565 57.7384 71.8232 59.4805C72.99 61.2226 73.6127 63.2708 73.6127 65.366C73.6096 68.1746 72.4898 70.8672 70.4992 72.8532C68.5086 74.8392 65.8096 75.9563 62.9945 75.9595Z" fill="#4B4B4B"/>
<path d="M138.844 74.0151H83.6527C82.9714 74.0151 82.3181 73.7451 81.8363 73.2645C81.3546 72.7839 81.084 72.132 81.084 71.4524C81.084 70.7727 81.3546 70.1209 81.8363 69.6403C82.3181 69.1597 82.9714 68.8896 83.6527 68.8896H138.844C139.526 68.8896 140.179 69.1597 140.661 69.6403C141.143 70.1209 141.413 70.7727 141.413 71.4524C141.413 72.132 141.143 72.7839 140.661 73.2645C140.179 73.7451 139.526 74.0151 138.844 74.0151Z" fill="#CCCCCC"/>
<path d="M101.919 63.1237H83.6527C83.3154 63.1237 82.9813 63.0574 82.6697 62.9286C82.358 62.7999 82.0749 62.6111 81.8363 62.3731C81.5978 62.1352 81.4086 61.8526 81.2795 61.5417C81.1504 61.2308 81.084 60.8975 81.084 60.561C81.084 60.2245 81.1504 59.8912 81.2795 59.5803C81.4086 59.2694 81.5978 58.9869 81.8363 58.7489C82.0749 58.5109 82.358 58.3222 82.6697 58.1934C82.9813 58.0646 83.3154 57.9983 83.6527 57.9983H101.919C102.6 57.9983 103.254 58.2683 103.735 58.7489C104.217 59.2295 104.488 59.8813 104.488 60.561C104.488 61.2407 104.217 61.8925 103.735 62.3731C103.254 62.8537 102.6 63.1237 101.919 63.1237Z" fill="#CCCCCC"/>
<path d="M62.452 69.0921C62.1885 69.0926 61.932 69.0076 61.7213 68.8499L61.7082 68.8401L58.9561 66.7397C58.8283 66.6423 58.721 66.5208 58.6404 66.382C58.5598 66.2432 58.5074 66.09 58.4862 65.931C58.4651 65.772 58.4755 65.6103 58.517 65.4554C58.5585 65.3004 58.6302 65.1551 58.728 65.0278C58.8258 64.9005 58.9478 64.7937 59.0871 64.7135C59.2263 64.6333 59.38 64.5813 59.5394 64.5604C59.6988 64.5395 59.8608 64.5502 60.0161 64.5919C60.1713 64.6335 60.3169 64.7053 60.4443 64.803L62.2269 66.1668L66.4393 60.6841C66.537 60.557 66.6588 60.4504 66.7978 60.3702C66.9368 60.2901 67.0903 60.238 67.2494 60.217C67.4086 60.1961 67.5704 60.2066 67.7254 60.248C67.8805 60.2894 68.0259 60.3608 68.1533 60.4583L68.1537 60.4585L68.1276 60.4948L68.1544 60.4585C68.4115 60.6556 68.5796 60.9464 68.622 61.2671C68.6644 61.5877 68.5776 61.912 68.3806 62.1689L63.4258 68.6149C63.3112 68.7634 63.1638 68.8836 62.9951 68.9661C62.8264 69.0486 62.6409 69.0913 62.453 69.0907L62.452 69.0921Z" fill="white"/>
<path d="M35.8828 54.1809C35.421 53.9861 34.922 53.8946 34.421 53.9129C33.9199 53.9313 33.429 54.059 32.9828 54.2872C32.5366 54.5153 32.1459 54.8382 31.8384 55.2333C31.5308 55.6283 31.3138 56.0858 31.2026 56.5736L23.4779 57.8938L23.1372 62.7727L34.0197 60.7554C34.8534 60.8875 35.7066 60.7098 36.4178 60.2561C37.129 59.8024 37.6486 59.1042 37.8783 58.2938C38.1079 57.4834 38.0316 56.6171 37.6638 55.8591C37.2961 55.101 36.6623 54.5039 35.8828 54.1809Z" fill="#FFB8B8"/>
<path d="M22.6137 40.1771C23.733 40.6788 24.6158 41.591 25.079 42.7246C25.5422 43.8582 25.5503 45.1262 25.1016 46.2656L20.6239 57.6363L26.2453 56.6055C26.5963 56.5411 26.9588 56.607 27.2645 56.7907C27.5703 56.9744 27.7982 57.2633 27.9053 57.6029L29.0259 61.1558C29.0844 61.3414 29.1052 61.5369 29.0869 61.7306C29.0686 61.9243 29.0117 62.1125 28.9195 62.2839C28.8273 62.4554 28.7016 62.6067 28.5499 62.7291C28.3982 62.8514 28.2236 62.9422 28.0362 62.9962L20.7297 65.1008C19.8055 65.3671 18.8319 65.416 17.8856 65.2437C16.9392 65.0714 16.0457 64.6826 15.2753 64.1079C14.5049 63.5331 13.8785 62.788 13.4452 61.9311C13.012 61.0742 12.7838 60.1288 12.7784 59.169C12.7759 58.7206 12.8221 58.2732 12.9162 57.8346L15.9863 43.526C16.1353 42.8311 16.4383 42.1784 16.873 41.6154C17.3077 41.0525 17.863 40.5937 18.4984 40.2727C19.1338 39.9516 19.8332 39.7764 20.5452 39.7598C21.2573 39.7433 21.964 39.8858 22.6137 40.1771Z" fill="#CCCCCC"/>
</g>
<defs>
<clipPath id="clip0_1014_814">
<rect width="210" height="150" fill="white"/>
</clipPath>
</defs>
</svg>
