<svg width="198" height="150" viewBox="0 0 198 150" fill="none" xmlns="http://www.w3.org/2000/svg">
<g clip-path="url(#clip0_477_4779)">
<path d="M79.2296 31.1065H78.5073V11.4036C78.5073 9.90603 78.2111 8.42316 77.6355 7.03961C77.06 5.65607 76.2164 4.39895 75.153 3.34003C74.0895 2.28111 72.827 1.44113 71.4375 0.868048C70.048 0.294965 68.5588 1.26883e-06 67.0548 0H25.1321C22.0947 -5.76556e-06 19.1817 1.20143 17.0339 3.34001C14.8862 5.47858 13.6796 8.37912 13.6796 11.4035V119.496C13.6796 120.993 13.9758 122.476 14.5513 123.86C15.1269 125.243 15.9705 126.5 17.0339 127.559C18.0974 128.618 19.3599 129.458 20.7494 130.031C22.1389 130.604 23.6281 130.899 25.1321 130.899H67.0547C70.0921 130.899 73.0051 129.698 75.1529 127.559C77.3007 125.421 78.5073 122.52 78.5073 119.496V45.1315H79.2296V31.1065Z" fill="#3F3D56"/>
<path d="M67.5169 2.9668H62.0446C62.2963 3.58114 62.3923 4.24768 62.3244 4.9077C62.2564 5.56772 62.0264 6.20096 61.6547 6.75164C61.2831 7.30232 60.7811 7.75353 60.193 8.06554C59.605 8.37754 58.9489 8.54076 58.2825 8.54081H34.2656C33.5992 8.54076 32.9431 8.37754 32.3551 8.06554C31.767 7.75354 31.265 7.30232 30.8934 6.75164C30.5217 6.20096 30.2917 5.56772 30.2237 4.9077C30.1558 4.24768 30.2518 3.58114 30.5035 2.9668H25.3923C24.2692 2.9668 23.157 3.18707 22.1194 3.61504C21.0817 4.04301 20.1389 4.6703 19.3447 5.46109C18.5505 6.25187 17.9206 7.19067 17.4908 8.22389C17.0609 9.2571 16.8397 10.3645 16.8397 11.4828V119.416C16.8397 120.535 17.0609 121.642 17.4908 122.675C17.9206 123.709 18.5505 124.647 19.3447 125.438C20.1389 126.229 21.0817 126.856 22.1194 127.284C23.157 127.712 24.2692 127.932 25.3923 127.932H67.5169C68.6401 127.932 69.7522 127.712 70.7899 127.284C71.8275 126.856 72.7703 126.229 73.5645 125.438C74.3587 124.647 74.9887 123.709 75.4185 122.675C75.8483 121.642 76.0695 120.535 76.0695 119.416V11.4828C76.0695 10.3645 75.8483 9.2571 75.4185 8.22389C74.9887 7.19067 74.3587 6.25187 73.5645 5.46109C72.7703 4.6703 71.8275 4.04301 70.7899 3.61504C69.7522 3.18707 68.6401 2.9668 67.5169 2.9668Z" fill="white"/>
<path d="M92.6667 130.918H0.242583C0.178246 130.918 0.116544 130.892 0.0710507 130.847C0.0255576 130.802 0 130.74 0 130.676C0 130.612 0.0255576 130.551 0.0710507 130.505C0.116544 130.46 0.178246 130.435 0.242583 130.435H92.6667C92.7311 130.435 92.7928 130.46 92.8383 130.505C92.8838 130.551 92.9093 130.612 92.9093 130.676C92.9093 130.74 92.8838 130.802 92.8383 130.847C92.7928 130.892 92.7311 130.918 92.6667 130.918Z" fill="#CBCBCB"/>
<path d="M46.4547 83.4974C57.7684 83.4974 66.9399 74.3651 66.9399 63.0998C66.9399 51.8345 57.7684 42.7021 46.4547 42.7021C35.141 42.7021 25.9695 51.8345 25.9695 63.0998C25.9695 74.3651 35.141 83.4974 46.4547 83.4974Z" fill="#4B4B4B"/>
<path d="M44.4247 70.8811C43.9638 70.8818 43.5152 70.7334 43.1465 70.4581L43.1236 70.441L38.3093 66.774C38.0863 66.6038 37.8992 66.3915 37.7586 66.1493C37.6181 65.9071 37.5268 65.6396 37.49 65.3623C37.4532 65.085 37.4716 64.8031 37.5442 64.5329C37.6168 64.2626 37.7422 64.0092 37.9131 63.7872C38.084 63.5652 38.2972 63.3789 38.5405 63.2389C38.7837 63.0989 39.0523 63.008 39.3308 62.9714C39.6094 62.9347 39.8924 62.9531 40.1638 63.0254C40.4353 63.0977 40.6897 63.2225 40.9127 63.3927L44.031 65.7737L51.3997 56.2015C51.5706 55.9796 51.7837 55.7933 52.0269 55.6534C52.27 55.5135 52.5385 55.4226 52.8169 55.386C53.0953 55.3494 53.3782 55.3677 53.6495 55.44C53.9208 55.5123 54.1752 55.637 54.3981 55.8072L54.3987 55.8076L54.353 55.8709L54.3999 55.8076C54.8496 56.1517 55.1438 56.6594 55.2179 57.2192C55.2921 57.779 55.1402 58.3453 54.7955 58.7937L46.1283 70.0478C45.9277 70.3071 45.6699 70.5169 45.3748 70.661C45.0797 70.805 44.7552 70.8795 44.4265 70.8785L44.4247 70.8811Z" fill="white"/>
<path d="M168.412 132.923C168.661 132.521 168.955 132.149 169.287 131.813C169.424 131.671 169.568 131.538 169.717 131.408C170.623 130.606 171.727 130.058 172.916 129.821C174.105 129.584 175.336 129.666 176.482 130.06C177.629 130.454 178.649 131.144 179.438 132.061C180.227 132.977 180.757 134.087 180.973 135.275C181.974 131.591 179.37 127.962 176.751 125.174C174.131 122.388 171.137 119.331 171.152 115.513C171.159 113.388 172.203 111.493 173.779 110.088C173.828 110.045 173.876 110.003 173.926 109.962C175.831 108.336 178.281 107.486 180.788 107.58C185.445 107.829 189.512 110.946 192.336 114.643C196.882 120.591 198.874 128.941 195.691 135.713C192.892 141.669 186.922 145.205 180.829 148.048C179.979 148.446 179.13 148.831 178.282 149.204C178.277 149.205 178.271 149.209 178.265 149.211C178.224 149.229 178.183 149.246 178.145 149.265C177.97 149.342 177.795 149.419 177.622 149.494L177.702 149.547L177.953 149.708C177.866 149.656 177.78 149.605 177.693 149.553C177.667 149.537 177.64 149.522 177.614 149.506C174.622 147.718 171.588 145.827 169.52 143.035C167.376 140.137 166.514 135.986 168.412 132.923Z" fill="#F1F1F1"/>
<path d="M188.377 126.193C189.04 127.693 189.479 129.283 189.681 130.91C189.84 132.361 189.781 133.827 189.504 135.261C188.91 138.206 187.614 140.967 185.725 143.31C184.3 145.088 182.655 146.681 180.83 148.049C179.979 148.446 179.13 148.831 178.282 149.204C178.277 149.206 178.271 149.21 178.265 149.211C178.224 149.229 178.183 149.247 178.145 149.265C177.97 149.342 177.795 149.419 177.622 149.495L177.702 149.547L177.953 149.708C177.866 149.656 177.78 149.605 177.693 149.553C177.667 149.537 177.64 149.522 177.614 149.506C178.273 147.213 178.37 144.795 177.897 142.456C177.423 140.118 176.394 137.926 174.896 136.065C173.389 134.227 171.467 132.77 169.287 131.813C169.424 131.672 169.568 131.538 169.717 131.409C170.557 131.793 171.361 132.25 172.12 132.775C174.833 134.642 176.871 137.33 177.932 140.441C178.878 143.263 178.996 146.296 178.272 149.182C178.423 149.085 178.573 148.984 178.72 148.884C181.508 147.012 184.077 144.764 186.012 142.007C187.681 139.677 188.749 136.974 189.122 134.137C189.493 131.037 188.714 127.988 187.324 125.222C185.79 122.263 183.856 119.527 181.576 117.089C179.287 114.585 176.698 112.368 173.868 110.49C173.804 110.447 173.759 110.381 173.743 110.307C173.726 110.232 173.739 110.154 173.779 110.088C173.809 110.028 173.862 109.983 173.926 109.962C173.958 109.954 173.992 109.953 174.025 109.959C174.058 109.966 174.088 109.98 174.115 110C174.464 110.232 174.811 110.466 175.153 110.708C178.003 112.717 180.591 115.071 182.859 117.716C185.049 120.266 187.043 123.098 188.377 126.193Z" fill="white"/>
<path d="M127.366 9.47093C129.769 9.47093 131.717 7.53147 131.717 5.13903C131.717 2.74659 129.769 0.807129 127.366 0.807129C124.964 0.807129 123.016 2.74659 123.016 5.13903C123.016 7.53147 124.964 9.47093 127.366 9.47093Z" fill="#F1F1F1"/>
<path d="M181.462 67.4423C182.927 67.4423 184.115 66.2599 184.115 64.8012C184.115 63.3426 182.927 62.1602 181.462 62.1602C179.997 62.1602 178.81 63.3426 178.81 64.8012C178.81 66.2599 179.997 67.4423 181.462 67.4423Z" fill="#F1F1F1"/>
<path d="M103.836 74.6884C105.301 74.6884 106.488 73.506 106.488 72.0473C106.488 70.5887 105.301 69.4062 103.836 69.4062C102.371 69.4062 101.183 70.5887 101.183 72.0473C101.183 73.506 102.371 74.6884 103.836 74.6884Z" fill="#F1F1F1"/>
<path d="M105.333 150H197.757C197.822 150 197.883 149.975 197.929 149.929C197.974 149.884 198 149.823 198 149.759C198 149.695 197.974 149.633 197.929 149.588C197.883 149.543 197.822 149.517 197.757 149.517H105.333C105.269 149.517 105.207 149.543 105.162 149.588C105.116 149.633 105.091 149.695 105.091 149.759C105.091 149.823 105.116 149.884 105.162 149.929C105.207 149.975 105.269 150 105.333 150Z" fill="#CBCBCB"/>
<path d="M187.558 23.3418C187.679 22.4839 187.48 21.6114 186.999 20.8898C186.517 20.1681 185.787 19.6474 184.945 19.4263C184.104 19.2052 183.21 19.299 182.434 19.6901C181.658 20.0812 181.052 20.7422 180.732 21.5481L173.232 30.1095L175.433 36.2295L182.976 26.2258C183.468 26.3828 183.989 26.4304 184.501 26.3653C185.014 26.3002 185.506 26.124 185.943 25.849C186.38 25.5741 186.751 25.2071 187.03 24.7739C187.309 24.3407 187.489 23.8519 187.558 23.3418Z" fill="#FFB7B7"/>
<path d="M156.469 56.6545L181.365 30.1983L178.007 24.8823L146.781 51.178L156.469 56.6545Z" fill="#3F3D56"/>
<path d="M150.913 40.5798C155.736 40.5798 159.646 36.6866 159.646 31.8841C159.646 27.0817 155.736 23.1885 150.913 23.1885C146.09 23.1885 142.18 27.0817 142.18 31.8841C142.18 36.6866 146.09 40.5798 150.913 40.5798Z" fill="#2F2E41"/>
<path d="M151.615 26.9718C153.494 25.0743 155.768 23.61 158.277 22.6821C159.887 22.0881 161.64 21.721 163.324 22.0584C165.007 22.3957 166.6 23.5555 167.069 25.2004C167.453 26.5454 167.057 27.9935 166.461 29.2597C165.865 30.5258 165.069 31.6999 164.587 33.0133C164.095 34.3534 163.947 35.7946 164.157 37.206C164.366 38.6175 164.926 39.9545 165.786 41.0957C166.646 42.237 167.779 43.1462 169.081 43.741C170.384 44.3358 171.815 44.5973 173.244 44.5017C171.59 44.7226 170.065 45.4967 168.448 45.9087C166.831 46.3207 164.923 46.2928 163.721 45.1393C162.45 43.9189 162.425 41.9347 162.486 40.1774C162.577 37.5651 162.669 34.9527 162.76 32.3404C162.807 31.0082 162.847 29.6333 162.364 28.3898C161.882 27.1464 160.735 26.0575 159.396 26.0688C158.381 26.0774 157.483 26.6894 156.67 27.293C155.856 27.8966 154.995 28.5405 153.984 28.6303C152.974 28.7201 151.82 27.9754 151.895 26.9679L151.615 26.9718Z" fill="#2F2E41"/>
<path d="M117.744 90.2713C116.906 90.5032 116.011 90.4209 115.23 90.0398C114.448 89.6588 113.834 89.0055 113.504 88.2039C113.174 87.4022 113.151 86.5078 113.439 85.6902C113.727 84.8726 114.306 84.1886 115.066 83.7677L122.611 75.2451L128.992 76.6178L120.017 85.371C120.238 85.8364 120.353 86.3442 120.355 86.8589C120.357 87.3735 120.246 87.8823 120.03 88.3495C119.813 88.8167 119.496 89.2309 119.101 89.5629C118.706 89.895 118.243 90.1368 117.744 90.2713Z" fill="#FFB7B7"/>
<path d="M142.566 59.7598L123.762 83.2622L118.03 80.642L140.132 46.3799L142.566 59.7598Z" fill="#3F3D56"/>
<path d="M127.562 130.727L123.08 130.657L123.619 145.866H127.561L127.562 130.727Z" fill="#FFB7B7"/>
<path d="M128.567 144.585L120.804 144.584H120.803C119.491 144.585 118.233 145.104 117.305 146.027C116.378 146.951 115.856 148.204 115.856 149.51V149.67L128.566 149.671L128.567 144.585Z" fill="#2F2E41"/>
<path d="M157.234 126.693L152.338 129.823L162.131 141.554L165.448 139.433L157.234 126.693Z" fill="#FFB7B7"/>
<path d="M165.599 137.814L159.066 141.99L159.066 141.99C157.962 142.696 157.185 143.81 156.905 145.086C156.626 146.363 156.867 147.697 157.576 148.797L157.663 148.931L168.358 142.094L165.599 137.814Z" fill="#2F2E41"/>
<path d="M158.978 80.251C158.978 80.251 148.101 44.2782 144.605 43.7921C141.109 43.3059 135.477 53.0223 135.477 53.0223C128.175 62.2996 120.645 92.351 120.645 92.351C120.645 92.351 133.197 93.1331 142.374 97.9943C151.55 102.856 162.379 97.7482 162.379 97.7482L158.978 80.251Z" fill="#3F3D56"/>
<path opacity="0.1" d="M158.978 80.2513C158.978 80.2513 148.101 44.2785 144.605 43.7924C141.109 43.3063 136.908 53.1212 136.908 53.1212C133.269 68.097 120.645 92.3513 120.645 92.3513C120.645 92.3513 133.197 93.1334 142.374 97.9946C151.55 102.856 162.379 97.7486 162.379 97.7486L158.978 80.2513Z" fill="black"/>
<path d="M150.054 69.4882V87.5643L152.19 113.749L162.864 133.556L157.77 137.179L143.215 118.338L137.458 99.6307L128.417 141.044L121.625 140.56L126.342 83.1423L135.294 66.9805L150.054 69.4882Z" fill="#2F2E41"/>
<path d="M139.087 52.0046C135.691 55.3862 138.844 59.0094 138.844 59.0094L134.963 67.705L150.246 71.8113L155.586 48.0484L151.948 44.1837C144.67 43.9422 144.666 43.792 144.666 43.792C143.391 45.0345 139.087 52.0046 139.087 52.0046Z" fill="#4B4B4B"/>
<path d="M156.202 45.5871C155.508 45.0769 154.719 44.7089 153.881 44.5045C153.043 44.3 152.173 44.2631 151.32 44.396C150.468 44.5288 149.651 44.8287 148.915 45.2784C148.18 45.728 147.542 46.3184 147.038 47.0153C143.196 52.342 139.643 60.9431 144.538 71.6704C152.397 88.8949 159.237 97.7125 162.017 97.7116C162.139 97.7126 162.26 97.6937 162.375 97.6557C164.086 97.0775 166.561 94.1938 167.009 91.6526C167.169 90.7431 167.131 89.4761 166.038 88.6062C162.901 86.1071 157.267 78.3256 155.51 68.0835C154.539 62.4241 156.422 57.269 158.173 53.941C158.913 52.564 159.129 50.9677 158.782 49.4447C158.436 47.9218 157.55 46.5742 156.286 45.649L156.202 45.5871Z" fill="#3F3D56"/>
<path d="M151.362 39.7254C154.477 38.0297 155.622 34.1404 153.919 31.0385C152.216 27.9365 148.31 26.7965 145.195 28.4922C142.08 30.1879 140.935 34.0771 142.638 37.1791C144.341 40.281 148.247 41.421 151.362 39.7254Z" fill="#FFB7B7"/>
<path d="M139.238 33.625H148.52L148.616 32.298L149.092 33.625H150.521L150.709 30.9949L151.653 33.625H154.418V33.4947C154.416 31.6637 153.685 29.9082 152.385 28.6135C151.084 27.3187 149.321 26.5904 147.483 26.5884H146.174C144.335 26.5904 142.572 27.3187 141.272 28.6135C139.971 29.9082 139.24 31.6637 139.238 33.4947V33.625Z" fill="#2F2E41"/>
<path d="M153.016 38.3947L156.977 37.1148V27.5361H149.495L149.68 27.7203C152.258 30.2833 155.124 39.3766 153.016 38.3947Z" fill="#2F2E41"/>
</g>
<defs>
<clipPath id="clip0_477_4779">
<rect width="198" height="150" fill="white"/>
</clipPath>
</defs>
</svg>
