<svg width="14" height="14" viewBox="0 0 14 14" fill="none" xmlns="http://www.w3.org/2000/svg">
<g id="document-svgrepo-com (1) 1">
<path id="Vector" fill-rule="evenodd" clip-rule="evenodd" d="M5.42085 0.754349C5.53025 0.644956 5.67862 0.583496 5.83333 0.583496H10.5C11.4665 0.583496 12.25 1.367 12.25 2.3335V11.6668C12.25 12.6334 11.4665 13.4168 10.5 13.4168H3.5C2.5335 13.4168 1.75 12.6334 1.75 11.6668V4.66683C1.75 4.51212 1.81146 4.36375 1.92085 4.25435L5.42085 0.754349ZM10.5 1.75016H6.41667V4.66683C6.41667 4.98899 6.15551 5.25016 5.83333 5.25016H2.91667V11.6668C2.91667 11.989 3.17784 12.2502 3.5 12.2502H10.5C10.8222 12.2502 11.0833 11.989 11.0833 11.6668V2.3335C11.0833 2.01133 10.8222 1.75016 10.5 1.75016ZM3.74162 4.0835H5.25V2.57512L3.74162 4.0835ZM4.08333 7.5835C4.08333 7.26132 4.3445 7.00016 4.66667 7.00016H9.33333C9.65551 7.00016 9.91667 7.26132 9.91667 7.5835C9.91667 7.90567 9.65551 8.16683 9.33333 8.16683H4.66667C4.3445 8.16683 4.08333 7.90567 4.08333 7.5835ZM4.08333 9.91683C4.08333 9.59465 4.3445 9.3335 4.66667 9.3335H9.33333C9.65551 9.3335 9.91667 9.59465 9.91667 9.91683C9.91667 10.239 9.65551 10.5002 9.33333 10.5002H4.66667C4.3445 10.5002 4.08333 10.239 4.08333 9.91683Z" fill="#575757"/>
</g>
</svg>
