<svg width="14" height="14" viewBox="0 0 14 14" fill="none" xmlns="http://www.w3.org/2000/svg">
<g clip-path="url(#clip0_477_6445)">
<path d="M7.04726 4.39436C5.59782 4.39436 4.42226 5.56993 4.42226 7.01936C4.42226 8.4688 5.59782 9.64436 7.04726 9.64436C8.4967 9.64436 9.67226 8.46924 9.67226 7.01936C9.67226 5.56949 8.49714 4.39436 7.04726 4.39436ZM7.04726 8.76936C6.08214 8.76936 5.27714 7.96524 5.27714 7.00011C5.27714 6.03499 6.06201 5.25011 7.02714 5.25011C7.99226 5.25011 8.77714 6.03499 8.77714 7.00011C8.77714 7.96524 8.01239 8.76936 7.04726 8.76936ZM13.9956 6.89861C13.9904 6.87674 13.993 6.85311 13.9864 6.83168C13.9838 6.82249 13.9777 6.81724 13.9746 6.80936C13.9698 6.79711 13.9711 6.78224 13.9646 6.77043C12.6919 3.85668 9.94964 2.18018 7.02714 2.18018C4.10464 2.18018 1.30726 3.85405 0.0341372 6.7678C0.0288872 6.78005 0.0297622 6.79274 0.0249497 6.80674C0.0218872 6.81549 0.0157622 6.81986 0.0126997 6.82818C0.00613721 6.85005 0.00876221 6.87324 0.00438721 6.89555C-0.00348779 6.93493 -0.0109253 6.97343 -0.0109253 7.01324C-0.0109253 7.05305 -0.00348779 7.09068 0.00438721 7.13049C0.00876221 7.15236 0.00569971 7.17643 0.0126997 7.19699C0.0153247 7.20705 0.0218872 7.21099 0.0249497 7.21974C0.0293247 7.23155 0.0284497 7.24643 0.0341372 7.25868C1.30726 10.1716 4.07751 11.8209 7.00001 11.8209C9.92251 11.8209 12.6923 10.1751 13.965 7.2613C13.9716 7.24861 13.9703 7.23593 13.9751 7.22193C13.9781 7.21449 13.9838 7.2088 13.9864 7.20005C13.993 7.17861 13.9913 7.15543 13.9956 7.13268C14.0035 7.0933 14.0105 7.05524 14.0105 7.01455C14.0105 6.97605 14.0031 6.93799 13.9952 6.89818L13.9956 6.89861ZM7.00001 10.9459C4.52157 10.9459 2.08164 9.63955 0.882887 7.0128C2.07026 4.39524 4.54257 3.05474 7.02714 3.05474C9.51126 3.05474 11.9284 4.39655 13.1163 7.01543C11.9293 9.63255 9.48501 10.9459 7.00001 10.9459Z" fill="#575757"/>
</g>
<defs>
<clipPath id="clip0_477_6445">
<rect width="14" height="14" fill="white"/>
</clipPath>
</defs>
</svg>
