<svg width="17" height="16" viewBox="0 0 17 16" fill="none" xmlns="http://www.w3.org/2000/svg">
<g clip-path="url(#clip0_477_6448)">
<path d="M12.07 4.87012C12.0086 4.92438 11.9585 4.99028 11.9227 5.06402C11.8869 5.13775 11.866 5.21785 11.8614 5.29969C11.8567 5.38153 11.8684 5.46347 11.8956 5.54079C11.9228 5.61811 11.9651 5.68926 12.02 5.75012C13.02 6.86012 13.12 10.5401 12.53 12.9701C12.4907 13.1319 12.5171 13.3026 12.6032 13.445C12.6894 13.5874 12.8285 13.6899 12.99 13.7301H13.14C13.2793 13.7303 13.4148 13.6842 13.5252 13.5992C13.6355 13.5141 13.7146 13.3949 13.75 13.2601C14.35 10.7801 14.4 6.51012 12.95 4.90012C12.8363 4.78119 12.6806 4.71147 12.5161 4.70587C12.3517 4.70026 12.1915 4.75921 12.07 4.87012ZM8.5 4.10012C9.15028 4.09712 9.79403 4.22995 10.39 4.49012C10.5412 4.55643 10.7125 4.55996 10.8663 4.49995C11.0201 4.43994 11.1437 4.3213 11.21 4.17012C11.2763 4.01895 11.2798 3.84763 11.2198 3.69385C11.1598 3.54007 11.0412 3.41643 10.89 3.35012C10.1371 3.01806 9.32288 2.84772 8.5 2.85012C5.5 2.85012 3.07 5.00012 3.07 7.64012C3.17838 9.20682 3.01256 10.7804 2.58 12.2901C2.54898 12.3656 2.53317 12.4465 2.53348 12.5281C2.53379 12.6097 2.55021 12.6905 2.5818 12.7657C2.61339 12.841 2.65952 12.9093 2.71756 12.9666C2.7756 13.024 2.84439 13.0694 2.92 13.1001C2.99487 13.1357 3.07716 13.1528 3.16 13.1501C3.28325 13.1505 3.40389 13.1146 3.50698 13.0471C3.61008 12.9796 3.69109 12.8833 3.74 12.7701C4.2421 11.1093 4.43861 9.37113 4.32 7.64012C4.32 5.69012 6.2 4.10012 8.5 4.10012Z" fill="white"/>
<path d="M14.1 2.44012C12.5682 1.04788 10.57 0.280697 8.5 0.290125C7.21913 0.28777 5.95429 0.574923 4.8 1.13012C4.7202 1.1641 4.64841 1.21443 4.58928 1.27788C4.53015 1.34133 4.48498 1.41648 4.45671 1.49847C4.42844 1.58047 4.41768 1.66748 4.42514 1.75389C4.43259 1.8403 4.4581 1.92419 4.5 2.00012C4.57326 2.14967 4.70275 2.26412 4.86016 2.31846C5.01756 2.3728 5.19008 2.36261 5.34 2.29012C6.32457 1.80858 7.40404 1.55237 8.5 1.54012C12.15 1.54012 15.23 4.33012 15.23 7.64012C15.2326 7.80547 15.3002 7.96316 15.418 8.07915C15.5359 8.19515 15.6946 8.26015 15.86 8.26013C15.9431 8.26281 16.0259 8.24875 16.1034 8.2188C16.181 8.18884 16.2517 8.1436 16.3114 8.08576C16.3711 8.02791 16.4186 7.95866 16.451 7.8821C16.4834 7.80555 16.5 7.72326 16.5 7.64012C16.4892 6.65315 16.2698 5.67963 15.8561 4.78345C15.4425 3.88726 14.844 3.08869 14.1 2.44012ZM2.66 3.54012C2.52227 3.44967 2.35497 3.41582 2.19291 3.44563C2.03085 3.47543 1.88653 3.56659 1.79 3.70012C0.976733 4.85168 0.527389 6.22061 0.5 7.63013C0.499979 7.79549 0.56498 7.95424 0.680973 8.0721C0.796967 8.18997 0.954653 8.2575 1.12 8.26013C1.20142 8.26013 1.28204 8.24409 1.35726 8.21293C1.43249 8.18177 1.50083 8.1361 1.55841 8.07853C1.61598 8.02096 1.66165 7.95261 1.69281 7.87739C1.72396 7.80217 1.74 7.72154 1.74 7.64012C1.76494 6.47899 2.14152 5.35274 2.82 4.41012C2.86734 4.34274 2.90078 4.2666 2.91837 4.18616C2.93596 4.10571 2.93735 4.02256 2.92246 3.94157C2.90756 3.86058 2.87668 3.78337 2.83162 3.71444C2.78656 3.64551 2.72822 3.58626 2.66 3.54012ZM8.5 5.41012C8.09783 5.38327 7.69449 5.44053 7.31569 5.57828C6.9369 5.71602 6.59098 5.93121 6.3 6.21012C6.24072 6.26705 6.19355 6.33537 6.16132 6.41098C6.1291 6.48659 6.11249 6.56793 6.11249 6.65013C6.11249 6.73232 6.1291 6.81366 6.16132 6.88927C6.19355 6.96488 6.24072 7.0332 6.3 7.09013C6.35763 7.14818 6.42618 7.19425 6.50169 7.22569C6.57721 7.25713 6.6582 7.27332 6.74 7.27332C6.8218 7.27332 6.90279 7.25713 6.97831 7.22569C7.05382 7.19425 7.12237 7.14818 7.18 7.09013C7.54644 6.77898 8.0206 6.62452 8.5 6.66012C8.86827 6.63959 9.23253 6.74534 9.53255 6.9599C9.83257 7.17446 10.0504 7.48498 10.15 7.84013C10.48 8.77013 10.15 12.7701 9.6 14.2401C9.54533 14.3966 9.55456 14.5684 9.6257 14.7182C9.69684 14.8679 9.82414 14.9836 9.98 15.0401C10.0497 15.0496 10.1203 15.0496 10.19 15.0401C10.32 15.0408 10.4468 15.0006 10.5527 14.9252C10.6586 14.8499 10.7381 14.7431 10.78 14.6201C11.1434 13.4413 11.3847 12.2283 11.5 11.0001C11.6522 9.82476 11.6116 8.63244 11.38 7.47012C11.1995 6.85415 10.8176 6.31648 10.2956 5.94304C9.77347 5.56961 9.14127 5.38197 8.5 5.41012ZM6.18 8.34013C6.01723 8.35292 5.86607 8.4294 5.75935 8.55297C5.65263 8.67655 5.59896 8.83722 5.61 9.00012C5.68314 10.5888 5.41371 12.1747 4.82 13.6501C4.77518 13.7184 4.74428 13.7948 4.72907 13.875C4.71386 13.9552 4.71464 14.0376 4.73136 14.1175C4.74809 14.1974 4.78043 14.2732 4.82653 14.3406C4.87263 14.408 4.93158 14.4656 5 14.5101C5.09953 14.5805 5.21812 14.6188 5.34 14.6201C5.44423 14.6202 5.54675 14.5936 5.63778 14.5429C5.72882 14.4921 5.80532 14.4189 5.86 14.3301C6.61335 12.6232 6.95586 10.7634 6.86 8.90012C6.85249 8.81856 6.8289 8.7393 6.79058 8.6669C6.75226 8.59451 6.69998 8.53043 6.63675 8.47836C6.57352 8.42629 6.5006 8.38726 6.42221 8.36354C6.34381 8.33981 6.26149 8.33185 6.18 8.34013Z" fill="white"/>
<path d="M8.4 7.6599C8.23581 7.68692 8.08898 7.77779 7.99155 7.91269C7.89413 8.04758 7.85403 8.21555 7.88 8.3799C8.00599 10.395 7.74113 12.4154 7.1 14.3299C7.02751 14.4798 7.01733 14.6523 7.07167 14.8097C7.12601 14.9672 7.24046 15.0966 7.39 15.1699C7.53886 15.2393 7.70892 15.2478 7.86395 15.1936C8.01899 15.1395 8.14675 15.0269 8.22 14.8799C8.97776 12.7288 9.28413 10.4446 9.12 8.1699C9.1067 8.08891 9.07745 8.01137 9.03394 7.94177C8.99044 7.87217 8.93355 7.8119 8.86657 7.76446C8.79959 7.71701 8.72386 7.68334 8.64377 7.66539C8.56368 7.64745 8.48082 7.64558 8.4 7.6599Z" fill="white"/>
</g>
<defs>
<clipPath id="clip0_477_6448">
<rect width="16" height="16" fill="white" transform="translate(0.5)"/>
</clipPath>
</defs>
</svg>
