<svg width="170" height="150" viewBox="0 0 170 150" fill="none" xmlns="http://www.w3.org/2000/svg">
<g clip-path="url(#clip0_1633_313)">
<path d="M162.469 149.801L162.243 149.716C162.193 149.697 157.242 147.805 154.923 143.513C152.604 139.221 153.74 134.054 153.751 134.002L153.805 133.767L154.031 133.851C154.081 133.87 159.032 135.763 161.351 140.054C163.67 144.346 162.534 149.514 162.523 149.565L162.469 149.801ZM155.295 143.313C157.255 146.942 161.168 148.802 162.159 149.226C162.347 148.166 162.938 143.879 160.979 140.254C159.021 136.629 155.107 134.767 154.115 134.341C153.927 135.402 153.336 139.688 155.295 143.313Z" fill="#3F3D56"/>
<path d="M156.696 142.007C160.863 144.509 162.469 149.479 162.469 149.479C162.469 149.479 157.316 150.393 153.149 147.89C148.981 145.388 147.375 140.418 147.375 140.418C147.375 140.418 152.528 139.505 156.696 142.007Z" fill="#4B4B4B"/>
<path d="M89.5963 80.3898C89.7983 80.078 90.064 79.8124 90.3761 79.6103C90.6882 79.4082 91.0395 79.2742 91.4071 79.217C91.7747 79.1598 92.1502 79.1808 92.5091 79.2786C92.868 79.3763 93.2022 79.5486 93.4897 79.7842C93.5804 79.8592 93.6657 79.9404 93.745 80.0273L104.124 78.5195L104.702 70.7313C104.746 70.1338 105.027 69.5783 105.481 69.187C105.936 68.7957 106.528 68.6007 107.127 68.6448C107.725 68.6889 108.282 68.9686 108.674 69.4223C109.066 69.876 109.262 70.4666 109.218 71.0641C109.217 71.0779 109.215 71.0918 109.214 71.1056L108.202 82.034L108.197 82.0583C108.066 82.4784 107.802 82.8449 107.445 83.1035C107.088 83.3621 106.657 83.4989 106.216 83.4937L94.0074 83.2834C93.9601 83.3556 93.909 83.4253 93.8543 83.4922C93.6181 83.779 93.3239 84.0129 92.9908 84.1783C92.6578 84.3438 92.2934 84.4372 91.9217 84.4524C91.55 84.4676 91.1792 84.4042 90.8337 84.2664C90.4882 84.1286 90.1758 83.9196 89.9169 83.6529C89.8644 83.5992 89.8146 83.5437 89.7676 83.4865C89.4157 83.0541 89.2097 82.5219 89.1789 81.9658C89.1482 81.4097 89.2942 80.8581 89.5963 80.3898Z" fill="#FFB7B7"/>
<path d="M110.522 146.794L107.562 146.794L106.154 135.4L110.523 135.4L110.522 146.794Z" fill="#FFB7B7"/>
<path d="M111.277 149.657L101.732 149.657V149.536C101.732 148.553 102.123 147.61 102.82 146.915C103.517 146.22 104.462 145.829 105.447 145.829H105.447L111.277 145.829L111.277 149.657Z" fill="#2F2E41"/>
<path d="M131.208 144.116L128.407 145.069L123.387 134.739L127.523 133.332L131.208 144.116Z" fill="#FFB7B7"/>
<path d="M132.849 146.582L123.815 149.657L123.776 149.543C123.458 148.613 123.523 147.594 123.958 146.712C124.392 145.829 125.16 145.155 126.093 144.837L126.093 144.837L131.611 142.959L132.849 146.582Z" fill="#2F2E41"/>
<path d="M113.782 47.1701C113.782 47.1701 110.836 46.1991 108.941 50.0831C107.047 53.9671 104.101 58.2395 104.101 58.2395L105.785 58.6279C105.785 58.6279 106.205 55.9091 107.258 55.5207L106.837 59.0163C106.837 59.0163 119.465 63.0945 125.147 58.6279L124.937 57.2685C124.937 57.2685 125.779 57.4627 125.779 58.6279L126.41 58.0453C126.41 58.0453 125.779 56.8801 123.884 55.3265C122.641 54.3068 122.214 52.3668 122.067 51.1539C121.951 50.127 121.509 49.1638 120.807 48.4042C119.549 47.058 117.255 45.6273 113.782 47.1701Z" fill="#2F2E41"/>
<path d="M114.868 60.7405C117.84 60.7405 120.25 58.3363 120.25 55.3705C120.25 52.4047 117.84 50.0005 114.868 50.0005C111.896 50.0005 109.487 52.4047 109.487 55.3705C109.487 58.3363 111.896 60.7405 114.868 60.7405Z" fill="#FFB7B7"/>
<path d="M107.693 65.1624L106.714 64.8369C106.714 64.8369 104.757 65.6506 104.757 67.1151C104.757 68.5796 104.431 74.4379 104.431 74.4379L108.834 74.926L107.693 65.1624Z" fill="#CBCBCB"/>
<path d="M125.206 97.1705C124.8 96.7167 124.571 96.1326 124.56 95.5245C124.549 94.9164 124.758 94.3246 125.147 93.8569L122.401 70.9023C122.374 70.361 122.563 69.8312 122.927 69.4291C123.292 69.027 123.801 68.7855 124.343 68.7576C124.886 68.7297 125.417 68.9177 125.821 69.2803C126.224 69.6429 126.467 70.1505 126.496 70.6917C126.497 70.6992 126.497 70.7067 126.497 70.7142L128.955 93.6932C129.044 93.7824 129.126 93.8784 129.2 93.9802C129.397 94.2521 129.539 94.5602 129.617 94.8867C129.694 95.2132 129.707 95.5519 129.654 95.8832C129.6 96.2146 129.482 96.5323 129.306 96.8181C129.129 97.1039 128.898 97.3522 128.626 97.5489C128.597 97.5692 128.569 97.589 128.54 97.6082C128.224 97.8166 127.866 97.9527 127.492 98.0068C127.117 98.0608 126.735 98.0314 126.374 97.9208C125.922 97.7842 125.517 97.5243 125.206 97.1705Z" fill="#FFB7B7"/>
<path d="M122.69 74.4378L127.093 73.9496C127.093 73.9496 126.767 68.0914 126.767 66.6268C126.767 65.1623 124.81 64.3486 124.81 64.3486L123.832 64.6741L122.69 74.4378Z" fill="#CBCBCB"/>
<path d="M108.345 82.5659C108.345 82.5659 104.594 89.4088 104.594 97.7079C104.594 106.007 104.268 144.085 104.268 144.085C104.268 144.085 109.16 146.363 112.096 143.597L114.705 101.451L124.979 142.783C124.979 142.783 129.872 143.76 132.155 142.133L127.752 113.33C127.752 113.33 125.958 86.3169 121.065 84.3642C116.173 82.4115 108.345 82.5659 108.345 82.5659Z" fill="#2F2E41"/>
<path d="M109.053 55.4043C110.958 54.0285 112.5 52.4439 113.52 50.5589C113.52 50.5589 117.017 54.4352 119.153 54.629C121.29 54.8229 119.348 49.9774 119.348 49.9774L115.463 49.0083L111.772 49.3959L108.859 51.3341L109.053 55.4043Z" fill="#2F2E41"/>
<path d="M120.25 63.3723C120.25 63.3723 120.405 63.2892 111.118 63.6267L107.231 64.6949L106.714 64.8369C106.714 64.8369 107.203 74.6006 108.508 76.3906C109.813 78.1806 109.487 79.1569 109.16 79.3197C108.834 79.4824 108.019 79.1569 108.508 79.9706C108.997 80.7842 109.65 80.296 108.997 80.7842C108.345 81.2724 108.019 83.0624 108.019 83.0624L122.37 85.0151C122.37 85.0151 122.859 78.6688 124.164 75.4142C125.468 72.1596 125.795 70.8578 125.795 70.8578L124.816 64.3487L120.25 63.3723Z" fill="#CBCBCB"/>
<path d="M92.9657 35.6154H92.1404V13.0565C92.1404 9.5937 90.7619 6.27273 88.308 3.82416C85.8542 1.3756 82.5261 5.58188e-06 79.0558 0L31.1584 0C27.6882 -9.48909e-06 24.36 1.37557 21.9062 3.82413C19.4523 6.27268 18.0737 9.59364 18.0737 13.0564V136.816C18.0737 140.279 19.4523 143.6 21.9061 146.049C24.36 148.497 27.6881 149.873 31.1584 149.873H79.0557C80.774 149.873 82.4755 149.535 84.063 148.879C85.6505 148.223 87.093 147.261 88.308 146.049C89.523 144.836 90.4868 143.397 91.1444 141.813C91.802 140.229 92.1404 138.531 92.1404 136.816V51.6732H92.9657L92.9657 35.6154Z" fill="#3F3D56"/>
<path d="M89.3556 13.1482V136.726C89.3568 138.005 89.1054 139.272 88.6158 140.455C88.1262 141.637 87.408 142.712 86.5023 143.617C85.5965 144.523 84.5209 145.241 83.3368 145.732C82.1527 146.223 80.8834 146.476 79.6013 146.477H31.4565C28.8667 146.479 26.3822 145.454 24.5496 143.628C22.7171 141.802 21.6865 139.324 21.6847 136.74V13.1482C21.6838 11.8687 21.9355 10.6014 22.4254 9.41889C22.9153 8.23636 23.6338 7.16169 24.5399 6.25625C25.446 5.3508 26.522 4.63231 27.7064 4.1418C28.8908 3.65129 30.1604 3.39837 31.4427 3.39746H37.2947C37.0072 4.10084 36.8975 4.86398 36.9752 5.61964C37.0529 6.37531 37.3157 7.1003 37.7403 7.73075C38.165 8.3612 38.7386 8.87775 39.4105 9.23489C40.0824 9.59203 40.832 9.77879 41.5932 9.77872H69.0337C69.795 9.77879 70.5446 9.59203 71.2165 9.23489C71.8884 8.87775 72.4619 8.3612 72.8866 7.73075C73.3113 7.1003 73.574 6.37531 73.6517 5.61964C73.7295 4.86398 73.6197 4.10084 73.3322 3.39746H79.5838C82.1731 3.39515 84.6573 4.41931 86.4899 6.24466C88.3225 8.07 89.3533 10.547 89.3556 13.1308L89.3556 13.1482Z" fill="white"/>
<path d="M89.3556 31.4312V27.222H82.9711V3.99942C81.8867 3.59981 80.7397 3.39598 79.5838 3.39747H78.7528V27.222H56.6064V9.77874H52.388V27.222H33.8272V3.39749H31.4565C30.8365 3.39652 30.2177 3.45502 29.6088 3.57217V27.222H21.6847V31.4312H29.6089V41.1674L21.6848 45.7323V50.594L29.6088 46.0291V74.9972H21.6847V79.2065H29.6088V121.089H21.6847V125.298H29.6088V146.302C30.2177 146.419 30.8365 146.478 31.4565 146.477H33.8272V125.298H52.388V146.477H56.6064V125.298H78.7528V146.477H79.5838C80.7397 146.478 81.8867 146.275 82.9711 145.875V125.298H89.3556V121.089H82.9711V102.778H89.2987V98.5691H82.9711V79.2065H89.3556V74.9972H82.9711V49.3206H89.3556V45.1114H82.9711V31.4312L89.3556 31.4312ZM46.5099 31.4312L33.8273 38.7386L33.8272 31.4312H46.5099ZM33.8272 43.5982L52.388 32.9046V74.9972H33.8272V43.5982ZM33.8272 121.089V79.2065H52.388V121.089H33.8272ZM78.7528 121.089H56.6064V102.778H78.7528V121.089ZM78.7528 98.5691H56.6064V79.2065H78.7528V98.5691ZM78.7528 74.9972H56.6064V49.3206H78.7528V74.9972ZM78.7528 45.1114H56.6064V31.4312H78.7528V45.1114Z" fill="#E5E5E5"/>
<path d="M92.8843 45.1891C92.8843 58.5563 68.6287 88.3342 68.6287 88.3342C68.6287 88.3342 44.3731 58.5563 44.3731 45.1891C44.3731 38.77 46.9286 32.6138 51.4774 28.0748C56.0262 23.5358 62.1957 20.9858 68.6287 20.9858C75.0617 20.9858 81.2312 23.5358 85.78 28.0748C90.3288 32.6138 92.8843 38.77 92.8843 45.1891Z" fill="#4B4B4B"/>
<path d="M82.9714 44.1367C82.9714 46.9673 82.1303 49.7342 80.5543 52.0878C78.9783 54.4413 76.7383 56.2756 74.1176 57.3588C71.4969 58.442 68.6131 58.7255 65.8309 58.1732C63.0488 57.621 60.4932 56.258 58.4874 54.2565C56.4815 52.255 55.1156 49.7049 54.5622 46.9288C54.0087 44.1526 54.2928 41.275 55.3783 38.6599C56.4639 36.0448 58.3022 33.8097 60.6608 32.2371C63.0194 30.6646 65.7923 29.8252 68.629 29.8252C70.5116 29.8243 72.376 30.1935 74.1156 30.9116C75.8552 31.6297 77.4361 32.6826 78.7679 34.0104C80.0997 35.3381 81.1564 36.9146 81.8777 38.6498C82.5989 40.385 82.9706 42.245 82.9714 44.1236V44.1367Z" fill="white"/>
<path d="M68.5791 49.7865C71.5301 49.7865 73.9223 47.3994 73.9223 44.4548C73.9223 41.5102 71.5301 39.123 68.5791 39.123C65.6281 39.123 63.2358 41.5102 63.2358 44.4548C63.2358 47.3994 65.6281 49.7865 68.5791 49.7865Z" fill="#4B4B4B"/>
<path d="M76.3338 56.6319C74.0304 58.0935 71.3572 58.8695 68.6276 58.8692C65.898 58.8688 63.225 58.092 60.922 56.6298C61.401 54.9592 62.4122 53.4897 63.8027 52.4436C65.1932 51.3975 66.8873 50.8318 68.6287 50.832C70.3701 50.8323 72.0641 51.3984 73.4543 52.4449C74.8445 53.4914 75.8553 54.9612 76.3338 56.6319Z" fill="#4B4B4B"/>
<path d="M68.6287 105.803C72.2398 105.803 75.1672 102.882 75.1672 99.2783C75.1672 95.675 72.2398 92.7539 68.6287 92.7539C65.0176 92.7539 62.0903 95.675 62.0903 99.2783C62.0903 102.882 65.0176 105.803 68.6287 105.803Z" fill="#4B4B4B"/>
<path d="M169.789 150H0.210918C0.154979 150 0.101331 149.978 0.0617765 149.938C0.0222217 149.899 0 149.845 0 149.79C0 149.734 0.0222217 149.68 0.0617765 149.641C0.101331 149.601 0.154979 149.579 0.210918 149.579H169.789C169.845 149.579 169.899 149.601 169.938 149.641C169.978 149.68 170 149.734 170 149.79C170 149.845 169.978 149.899 169.938 149.938C169.899 149.978 169.845 150 169.789 150Z" fill="#CBCBCB"/>
</g>
<defs>
<clipPath id="clip0_1633_313">
<rect width="170" height="150" fill="white"/>
</clipPath>
</defs>
</svg>
