<svg width="160" height="150" viewBox="0 0 160 150" fill="none" xmlns="http://www.w3.org/2000/svg">
<g clip-path="url(#clip0_477_6934)">
<path d="M147.905 114.754L155.082 115.879C157.512 112.93 159.187 109.431 159.961 105.687C154.713 109.993 146.731 107.704 140.367 110.056C138.388 110.804 136.602 111.989 135.142 113.524C133.682 115.058 132.585 116.902 131.932 118.919L128.425 122.702C131.6 123.962 135.01 124.517 138.42 124.329C141.83 124.141 145.158 123.214 148.177 121.612C149.861 120.697 151.423 119.573 152.827 118.266C150.316 116.681 147.905 114.754 147.905 114.754Z" fill="#F2F2F2"/>
<path d="M145.357 103.248L152.281 101.046C153.144 97.3203 153.086 93.4402 152.113 89.7422C149.332 95.9428 141.17 97.4626 136.52 102.412C135.081 103.967 134.01 105.826 133.386 107.852C132.762 109.878 132.601 112.019 132.914 114.116L131.458 119.07C134.86 118.778 138.159 117.751 141.128 116.058C144.096 114.365 146.663 112.048 148.651 109.265C149.752 107.692 150.65 105.988 151.325 104.19C148.372 103.894 145.357 103.248 145.357 103.248Z" fill="#F2F2F2"/>
<path d="M160 124.994C160 125.032 159.993 125.068 159.979 125.103C159.965 125.137 159.944 125.168 159.918 125.194C159.892 125.221 159.86 125.241 159.826 125.256C159.792 125.27 159.755 125.277 159.718 125.277H0.281795C0.207058 125.277 0.135382 125.247 0.0825353 125.194C0.0296886 125.141 0 125.069 0 124.994C0 124.919 0.0296886 124.848 0.0825353 124.795C0.135382 124.742 0.207058 124.712 0.281795 124.712H159.718C159.755 124.712 159.792 124.719 159.826 124.733C159.86 124.747 159.892 124.768 159.918 124.794C159.944 124.821 159.965 124.852 159.979 124.886C159.993 124.92 160 124.957 160 124.994Z" fill="#CCCCCC"/>
<path d="M66.0672 112.952C94.1854 112.952 116.98 90.1041 116.98 61.9195C116.98 33.7349 94.1854 10.8867 66.0672 10.8867C37.9491 10.8867 15.1548 33.7349 15.1548 61.9195C15.1548 90.1041 37.9491 112.952 66.0672 112.952Z" fill="#E6E6E6"/>
<path d="M109.876 61.9197C109.881 68.7716 108.284 75.5294 105.213 81.651C102.142 87.7726 97.6834 93.0879 92.1935 97.1703C91.8265 97.4457 91.4523 97.7139 91.0758 97.975C83.7345 103.09 75.0078 105.832 66.0671 105.832C57.1265 105.832 48.3998 103.09 41.0585 97.975C40.682 97.7139 40.3078 97.4457 39.9408 97.1703C34.4547 93.0843 29.9984 87.7683 26.9281 81.6475C23.8578 75.5266 22.2588 68.7707 22.2588 61.9197C22.2588 55.0688 23.8578 48.3128 26.9281 42.192C29.9984 36.0711 34.4547 30.7552 39.9408 26.6691C40.3078 26.3938 40.682 26.1256 41.0585 25.8645C48.3998 20.7494 57.1265 18.0078 66.0671 18.0078C75.0078 18.0078 83.7345 20.7494 91.0758 25.8645C91.4523 26.1256 91.8265 26.3938 92.1935 26.6691C97.6834 30.7516 102.142 36.0668 105.213 42.1885C108.284 48.3101 109.881 55.0678 109.876 61.9197Z" fill="white"/>
<path d="M66.0671 102.034C88.1693 102.034 106.087 84.0742 106.087 61.9198C106.087 39.7654 88.1693 21.8057 66.0671 21.8057C43.965 21.8057 26.0476 39.7654 26.0476 61.9198C26.0476 84.0742 43.965 102.034 66.0671 102.034Z" fill="#4B4B4B"/>
<path opacity="0.2" d="M66.1716 21.9175C65.5649 21.9175 64.962 21.9334 64.3619 21.9602C74.4766 22.8511 83.8753 27.5626 90.6537 35.1402C97.4322 42.7178 101.084 52.5949 100.868 62.7703C100.653 72.9457 96.5865 82.6585 89.4933 89.941C82.4002 97.2235 72.8105 101.531 62.6672 101.991C63.8223 102.091 64.9905 102.146 66.1716 102.146C76.7854 102.146 86.9646 97.9194 94.4697 90.3966C101.975 82.8737 106.191 72.6706 106.191 62.0316C106.191 51.3927 101.975 41.1895 94.4697 33.6666C86.9646 26.1438 76.7854 21.9175 66.1716 21.9175Z" fill="black"/>
<path d="M66.1857 18.957C65.8405 18.9576 65.5095 19.0954 65.2654 19.3401C65.0213 19.5848 64.8839 19.9165 64.8833 20.2625V25.9592C64.8833 26.3054 65.0205 26.6375 65.2648 26.8823C65.509 27.1271 65.8403 27.2647 66.1857 27.2647C66.5311 27.2647 66.8624 27.1271 67.1067 26.8823C67.3509 26.6375 67.4881 26.3054 67.4881 25.9592V20.2625C67.4875 19.9165 67.3501 19.5848 67.106 19.3401C66.8619 19.0954 66.5309 18.9576 66.1857 18.957Z" fill="white"/>
<path d="M92.1936 26.6687C91.8265 26.3934 91.4524 26.1252 91.0758 25.8641C90.8499 25.8493 90.6241 25.8939 90.4206 25.9934C90.2171 26.0929 90.043 26.2438 89.9155 26.4314L86.7163 31.1383C86.522 31.4244 86.4489 31.7762 86.5133 32.1163C86.5777 32.4564 86.7743 32.7569 87.0597 32.9517C87.3451 33.1465 87.6961 33.2197 88.0354 33.1552C88.3747 33.0907 88.6745 32.8937 88.8689 32.6075L92.068 27.9007C92.1898 27.7221 92.265 27.5158 92.2869 27.3007C92.3089 27.0855 92.2768 26.8683 92.1936 26.6687Z" fill="white"/>
<path d="M106.729 48.1314C106.664 47.9727 106.569 47.8283 106.449 47.7064C106.329 47.5844 106.186 47.4874 106.029 47.4208C105.872 47.3543 105.703 47.3195 105.532 47.3184C105.361 47.3173 105.191 47.35 105.033 47.4146L99.7666 49.558C99.4469 49.6885 99.192 49.9409 99.0579 50.2597C98.9238 50.5785 98.9214 50.9377 99.0513 51.2582C99.1813 51.5788 99.4328 51.8345 99.7508 51.9692C100.069 52.1039 100.427 52.1066 100.747 51.9767L106.013 49.8333C106.333 49.7021 106.588 49.4494 106.722 49.1304C106.856 48.8114 106.858 48.4522 106.729 48.1314Z" fill="white"/>
<path d="M45.4181 31.1383L42.2189 26.4314C42.0915 26.2438 41.9174 26.0929 41.7139 25.9934C41.5104 25.8939 41.2845 25.8493 41.0586 25.8641C40.6821 26.1252 40.3079 26.3934 39.9409 26.6687C39.8577 26.8683 39.8256 27.0855 39.8475 27.3007C39.8694 27.5158 39.9447 27.7221 40.0664 27.9007L43.2656 32.6075C43.46 32.8937 43.7598 33.0907 44.0991 33.1552C44.4384 33.2197 44.7893 33.1465 45.0748 32.9517C45.3602 32.7569 45.5567 32.4564 45.6211 32.1163C45.6855 31.7762 45.6125 31.4244 45.4181 31.1383Z" fill="white"/>
<path d="M32.368 49.5576L27.1016 47.4143C26.7816 47.284 26.4231 47.2865 26.105 47.4212C25.7868 47.5559 25.5351 47.8117 25.4051 48.1324C25.2751 48.4531 25.2775 48.8124 25.4118 49.1313C25.5461 49.4502 25.8013 49.7026 26.1212 49.833L31.3877 51.9763C31.7076 52.1063 32.0659 52.1036 32.3838 51.9689C32.7018 51.8342 32.9533 51.5784 33.0833 51.2579C33.2132 50.9373 33.2108 50.5782 33.0767 50.2594C32.9426 49.9406 32.6877 49.6882 32.368 49.5576Z" fill="white"/>
<path d="M66.1857 96.5742C65.8405 96.5748 65.5095 96.7126 65.2654 96.9573C65.0213 97.2019 64.8839 97.5337 64.8833 97.8797V103.576C64.8833 103.923 65.0205 104.255 65.2648 104.5C65.509 104.744 65.8403 104.882 66.1857 104.882C66.5311 104.882 66.8624 104.744 67.1067 104.5C67.3509 104.255 67.4881 103.923 67.4881 103.576V97.8797C67.4875 97.5337 67.3501 97.2019 67.106 96.9573C66.8619 96.7126 66.5309 96.5748 66.1857 96.5742Z" fill="white"/>
<path d="M92.0681 95.9381L88.8689 91.2312C88.7726 91.0895 88.6495 90.9682 88.5065 90.8743C88.3635 90.7803 88.2034 90.7155 88.0354 90.6835C87.8674 90.6516 87.6948 90.6531 87.5274 90.688C87.3599 90.7229 87.201 90.7906 87.0597 90.887C86.9184 90.9835 86.7974 91.1069 86.7036 91.2503C86.6099 91.3936 86.5452 91.5541 86.5133 91.7225C86.4814 91.8909 86.4829 92.0639 86.5178 92.2317C86.5526 92.3995 86.6201 92.5588 86.7163 92.7005L89.9155 97.4074C90.043 97.5949 90.2171 97.7459 90.4206 97.8454C90.6241 97.9448 90.8499 97.9894 91.0759 97.9747C91.4524 97.7136 91.8265 97.4453 92.1936 97.17C92.2768 96.9705 92.3089 96.7532 92.287 96.5381C92.265 96.3229 92.1898 96.1167 92.0681 95.9381Z" fill="white"/>
<path d="M106.013 74.0059L100.747 71.8625C100.427 71.7323 100.068 71.7348 99.7502 71.8694C99.4321 72.0041 99.1804 72.2599 99.0504 72.5806C98.9204 72.9013 98.9228 73.2606 99.0571 73.5796C99.1914 73.8985 99.4465 74.1509 99.7665 74.2812L105.033 76.4246C105.353 76.5545 105.711 76.5518 106.029 76.4171C106.347 76.2824 106.599 76.0267 106.729 75.7061C106.858 75.3856 106.856 75.0264 106.722 74.7076C106.588 74.3888 106.333 74.1364 106.013 74.0059Z" fill="white"/>
<path d="M45.0748 90.8874C44.7893 90.6926 44.4383 90.6195 44.0991 90.684C43.7598 90.7486 43.46 90.9455 43.2656 91.2316L40.0664 95.9384C39.9447 96.117 39.8694 96.3233 39.8475 96.5384C39.8256 96.7536 39.8577 96.9708 39.9409 97.1704C40.3079 97.4457 40.6821 97.7139 41.0586 97.975C41.2845 97.9898 41.5104 97.9452 41.7139 97.8457C41.9174 97.7462 42.0915 97.5953 42.2189 97.4077L45.4181 92.7008C45.5144 92.5592 45.5819 92.3999 45.6167 92.2321C45.6515 92.0643 45.6531 91.8912 45.6212 91.7228C45.5893 91.5544 45.5246 91.394 45.4309 91.2506C45.3371 91.1073 45.2161 90.9839 45.0748 90.8874Z" fill="white"/>
<path d="M33.083 72.5797C33.0187 72.421 32.9238 72.2765 32.8038 72.1546C32.6838 72.0327 32.5409 71.9357 32.3835 71.8691C32.226 71.8025 32.057 71.7677 31.8861 71.7666C31.7152 71.7656 31.5458 71.7982 31.3875 71.8628L26.1211 74.0062C25.8014 74.1367 25.5465 74.3891 25.4124 74.7079C25.2783 75.0268 25.2759 75.3859 25.4058 75.7064C25.5358 76.027 25.7873 76.2827 26.1053 76.4175C26.4232 76.5522 26.7815 76.5549 27.1014 76.4249L32.3679 74.2815C32.6874 74.1504 32.9421 73.8976 33.0761 73.5786C33.2101 73.2597 33.2126 72.9005 33.083 72.5797Z" fill="white"/>
<path d="M67.8755 61.272C67.9958 61.9855 67.8287 62.7178 67.4111 63.3081C66.9934 63.8984 66.3591 64.2985 65.6475 64.4207L42.5361 68.3612C42.1835 68.4213 41.8226 68.4112 41.4739 68.3315C41.1253 68.2518 40.7957 68.1041 40.504 67.8967C40.2123 67.6893 39.9642 67.4264 39.7739 67.1229C39.5836 66.8194 39.4547 66.4813 39.3948 66.1279C39.3348 65.7745 39.3449 65.4128 39.4244 65.0633C39.5039 64.7138 39.6513 64.3834 39.8582 64.091C40.0651 63.7986 40.3274 63.55 40.6302 63.3592C40.9329 63.1684 41.2702 63.0393 41.6228 62.9792L64.7342 59.0387C65.4461 58.9181 66.1767 59.0856 66.7656 59.5042C67.3545 59.9229 67.7536 60.5586 67.8755 61.272Z" fill="#3F3D56"/>
<path d="M92.1997 86.9378C91.8677 87.2725 91.4168 87.4615 90.9459 87.4634C90.475 87.4652 90.0226 87.2798 89.688 86.9477L64.8089 62.2054C64.475 61.8728 64.2866 61.4209 64.2849 60.949C64.2833 60.4772 64.4686 60.0239 64.8002 59.689C65.1317 59.354 65.5824 59.1647 66.0531 59.1626C66.5239 59.1605 66.9762 59.3459 67.3106 59.6779L92.1898 84.4202C92.5237 84.753 92.7122 85.205 92.7141 85.677C92.716 86.149 92.5309 86.6024 92.1997 86.9378Z" fill="#3F3D56"/>
<path d="M66.0672 65.0054C67.7674 65.0054 69.1456 63.6239 69.1456 61.9197C69.1456 60.2155 67.7674 58.834 66.0672 58.834C64.367 58.834 62.9888 60.2155 62.9888 61.9197C62.9888 63.6239 64.367 65.0054 66.0672 65.0054Z" fill="#CCCCCC"/>
<path d="M44.863 8.41305C40.1376 15.8597 32.9278 20.8016 24.0363 24.0482C23.8606 24.1801 23.6607 24.276 23.448 24.3305C23.2353 24.3849 23.014 24.3969 22.7967 24.3656C22.5794 24.3343 22.3704 24.2605 22.1816 24.1483C21.9928 24.036 21.8279 23.8876 21.6963 23.7115C16.8665 17.2475 17.9571 8.00928 24.3314 3.07008C25.8725 1.87802 27.6344 1.00468 29.515 0.500771C31.3956 -0.00314262 33.3573 -0.127598 35.2862 0.134634C37.2151 0.396866 39.0729 1.04056 40.7516 2.02834C42.4304 3.01613 43.8966 4.32833 45.0653 5.88877L45.1989 6.06755C45.3304 6.24367 45.4261 6.44404 45.4805 6.65722C45.5348 6.87041 45.5467 7.09223 45.5155 7.31003C45.4843 7.52783 45.4107 7.73734 45.2987 7.9266C45.1867 8.11585 45.0387 8.28115 44.863 8.41305Z" fill="#E6E6E6"/>
<path d="M87.069 5.88877C88.2377 4.32833 89.7039 3.01613 91.3827 2.02834C93.0614 1.04056 94.9191 0.396867 96.8481 0.134635C98.777 -0.127597 100.739 -0.00314522 102.619 0.500768C104.5 1.00468 106.262 1.87802 107.803 3.07007C114.177 8.00928 115.268 17.2475 110.438 23.7115C110.306 23.8876 110.141 24.036 109.953 24.1483C109.764 24.2605 109.555 24.3343 109.338 24.3656C109.12 24.3969 108.899 24.3849 108.686 24.3305C108.474 24.276 108.274 24.1801 108.098 24.0482C99.8437 20.8805 93.0748 15.3988 87.2713 8.41305C86.9165 8.14666 86.6818 7.74989 86.6188 7.31002C86.5558 6.87015 86.6697 6.42322 86.9354 6.06754L87.069 5.88877Z" fill="#E6E6E6"/>
<path d="M84.9978 106.133C84.6969 106.302 84.4752 106.584 84.3814 106.917C84.2876 107.25 84.3292 107.607 84.4973 107.909L92.0138 121.373C92.1826 121.675 92.4641 121.898 92.7965 121.992C93.1288 122.086 93.4849 122.044 93.7863 121.875C94.0877 121.706 94.3097 121.424 94.4036 121.09C94.4975 120.757 94.4555 120.4 94.287 120.098L86.7704 106.634C86.6013 106.333 86.3198 106.111 85.9875 106.017C85.6553 105.922 85.2994 105.964 84.9978 106.133Z" fill="#E6E6E6"/>
<path d="M45.3639 106.634L37.8474 120.098C37.6788 120.4 37.6368 120.757 37.7307 121.09C37.8246 121.423 38.0467 121.705 38.348 121.874C38.6494 122.043 39.0055 122.086 39.3378 121.991C39.6702 121.897 39.9517 121.675 40.1205 121.373L47.637 107.909C47.7206 107.759 47.7739 107.595 47.794 107.425C47.8141 107.254 47.8005 107.082 47.754 106.917C47.7076 106.752 47.6291 106.597 47.5232 106.463C47.4172 106.328 47.2859 106.216 47.1366 106.132C46.9873 106.048 46.8231 105.995 46.6532 105.975C46.4833 105.955 46.3111 105.968 46.1465 106.015C45.9819 106.062 45.8281 106.14 45.6938 106.246C45.5595 106.353 45.4474 106.484 45.3639 106.634Z" fill="#E6E6E6"/>
<path d="M93.5361 124.82C95.7594 124.82 97.5618 123.014 97.5618 120.785C97.5618 118.557 95.7594 116.75 93.5361 116.75C91.3128 116.75 89.5105 118.557 89.5105 120.785C89.5105 123.014 91.3128 124.82 93.5361 124.82Z" fill="#E6E6E6"/>
<path d="M96.3779 21.5679C98.6012 21.5679 100.404 19.7613 100.404 17.5327C100.404 15.3042 98.6012 13.4976 96.3779 13.4976C94.1546 13.4976 92.3523 15.3042 92.3523 17.5327C92.3523 19.7613 94.1546 21.5679 96.3779 21.5679Z" fill="#E6E6E6"/>
<path d="M65.8303 12.0737C68.0536 12.0737 69.856 10.2671 69.856 8.03857C69.856 5.81002 68.0536 4.00342 65.8303 4.00342C63.607 4.00342 61.8047 5.81002 61.8047 8.03857C61.8047 10.2671 63.607 12.0737 65.8303 12.0737Z" fill="#E6E6E6"/>
<path d="M36.7039 21.0932C38.9272 21.0932 40.7295 19.2866 40.7295 17.0581C40.7295 14.8295 38.9272 13.0229 36.7039 13.0229C34.4806 13.0229 32.6782 14.8295 32.6782 17.0581C32.6782 19.2866 34.4806 21.0932 36.7039 21.0932Z" fill="#E6E6E6"/>
<path d="M39.3086 124.82C41.5319 124.82 43.3342 123.014 43.3342 120.785C43.3342 118.557 41.5319 116.75 39.3086 116.75C37.0853 116.75 35.283 118.557 35.283 120.785C35.283 123.014 37.0853 124.82 39.3086 124.82Z" fill="#E6E6E6"/>
<path d="M90.3786 84.6686C90.5373 84.9177 90.7485 85.1288 90.9974 85.2872C91.2463 85.4456 91.5268 85.5473 91.8192 85.5853C92.1116 85.6232 92.4087 85.5964 92.6897 85.5068C92.9706 85.4172 93.2285 85.267 93.4453 85.0666L99.7621 88.4593L99.4233 84.7419L93.4767 82.0901C93.1168 81.7474 92.644 81.549 92.148 81.5324C91.6519 81.5158 91.1669 81.6822 90.7851 82C90.4032 82.3178 90.1509 82.7651 90.076 83.2569C90.0011 83.7487 90.1087 84.251 90.3786 84.6686Z" fill="#FFB7B7"/>
<path d="M94.9812 85.9661L97.4566 82.541L109.382 88.1918L124.222 85.4008C124.955 85.2629 125.71 85.2885 126.432 85.4758C127.155 85.6632 127.828 86.0077 128.402 86.4849C128.977 86.9621 129.44 87.5602 129.758 88.2369C130.076 88.9136 130.242 89.6522 130.244 90.4003C130.245 91.7514 129.711 93.0479 128.759 94.0051C127.808 94.9623 126.517 95.5021 125.169 95.506L108.162 95.5376L94.9812 85.9661Z" fill="#3F3D56"/>
<path d="M91.1685 145.123L88.6638 143.922L92.1043 133.429L95.8006 135.201L91.1685 145.123Z" fill="#FFB7B7"/>
<path d="M107.959 143.431C107.777 143.545 107.595 143.658 107.411 143.77C107.045 143.995 106.675 144.217 106.305 144.434C106.12 144.543 105.932 144.652 105.746 144.759V144.764L105.735 144.766L105.731 144.768L105.448 144.838L105.042 143.761L104.854 143.265L104.589 142.562L104.103 141.277L101.546 134.51L105.522 133.527L105.671 134.137H105.672L105.746 134.44L107.135 140.086L107.418 141.24L107.428 141.275L107.599 141.965L107.746 142.562L107.91 143.23L107.959 143.431Z" fill="#FFB7B7"/>
<path d="M131.675 119.665C131.422 120.071 131.165 120.475 130.906 120.875C130.424 121.62 129.929 122.354 129.421 123.076C129.421 123.078 129.419 123.078 129.417 123.08C129.121 123.355 128.794 123.595 128.442 123.794C128.428 123.805 128.411 123.812 128.396 123.821C128.137 123.965 127.862 124.076 127.576 124.151C127.473 124.177 127.368 124.203 127.265 124.229C126.893 124.317 126.525 124.393 126.159 124.459C125.508 124.576 124.864 124.659 124.224 124.71C124.172 124.716 124.121 124.719 124.069 124.723C121.437 124.917 118.874 124.605 116.199 124.094C114.878 123.844 113.53 123.543 112.134 123.231C111.677 123.128 111.219 123.027 110.756 122.925C110.721 122.918 110.684 122.909 110.647 122.901C109.985 122.756 109.312 122.612 108.622 122.47C107.754 122.291 106.858 122.118 105.927 121.953L105.993 123.268C106.048 124.28 106.258 125.277 106.615 126.224C107.012 127.39 107.327 128.312 106.663 130.231L106.343 131.161C106.508 131.622 106.565 132.116 106.509 132.603C106.452 133.09 106.284 133.558 106.017 133.969L105.953 134.067L108.622 140.836L108.795 141.275H107.428L105.746 141.277H102.897L98.7852 133.008L98.5884 132.614V132.593L99.0133 116.704C99.0189 116.563 99.0299 116.421 99.0483 116.281C99.1232 115.644 99.324 115.028 99.6389 114.47C99.9538 113.911 100.377 113.421 100.882 113.028C101.367 112.649 101.922 112.369 102.516 112.207C103.109 112.044 103.729 112.001 104.339 112.081L105.746 112.263L108.622 112.636L110.647 112.899L110.688 112.905L116.661 113.679L117.09 111.928L117.169 111.898L119.684 110.974L128.382 107.779L128.404 107.771L128.976 107.561L129.044 107.672C129.064 107.705 129.084 107.738 129.103 107.771C129.668 108.787 130.129 109.859 130.477 110.969C131.063 112.782 131.545 114.627 131.921 116.495C131.938 116.576 131.952 116.65 131.965 116.717L131.971 116.737C131.976 116.768 131.98 116.788 131.982 116.794C132.182 117.631 132.042 118.653 131.675 119.665Z" fill="#2F2E41"/>
<path d="M132.042 113.81C132.014 113.692 131.979 113.572 131.942 113.456C131.65 112.576 131.31 111.713 130.923 110.87C130.489 109.911 129.968 108.884 129.348 107.772C129.048 107.234 128.726 106.674 128.381 106.092C128.208 105.801 128.028 105.504 127.842 105.202C127.834 105.188 127.826 105.174 127.818 105.161L127.764 105.073L119.158 106.227L115.954 106.657L115.762 108.257L115.716 108.654C115.715 108.654 115.715 108.654 115.716 108.656L115.588 109.736V109.738L115.417 111.165L115.402 111.163L110.646 110.546L105.746 109.91L103.113 109.568C102.503 109.489 101.883 109.532 101.29 109.694C100.696 109.857 100.141 110.136 99.6564 110.516C99.1506 110.909 98.7279 111.399 98.413 111.958C98.0981 112.516 97.8973 113.132 97.8222 113.769C97.8057 113.898 97.7946 114.031 97.7891 114.162L95.3056 120.061C93.8194 123.589 92.873 127.321 92.4983 131.132L90.677 136.968L90.9364 136.992L94.796 137.352L95.8151 137.448L98.0595 134.164C98.3152 133.789 98.5581 133.404 98.7843 133.009C99.1569 132.365 99.4881 131.697 99.7759 131.01L104.631 119.43C105.006 119.495 105.378 119.556 105.746 119.615C107.447 119.891 109.081 120.117 110.646 120.291C115.737 120.861 120.145 120.905 124.069 120.422C125.17 120.288 126.236 120.111 127.264 119.891C127.641 119.812 128.013 119.726 128.381 119.635C128.467 119.615 128.552 119.594 128.636 119.572C129.397 119.376 130.096 118.991 130.669 118.454C131.243 117.916 131.673 117.243 131.92 116.496C132.215 115.631 132.257 114.698 132.042 113.81Z" fill="#2F2E41"/>
<path d="M91.9684 143.409L89.2586 142.108L88.8337 141.903L88.1548 143.574L83.4159 144.619C83.1816 144.671 82.9698 144.796 82.8116 144.976C82.6534 145.157 82.5569 145.384 82.5364 145.623C82.5158 145.863 82.5722 146.103 82.6974 146.308C82.8225 146.513 83.0098 146.673 83.2319 146.764L87.8623 148.657L89.3322 147.332L88.9716 149.111L90.7156 149.825L92.627 143.727L91.9684 143.409Z" fill="#2F2E41"/>
<path d="M108.622 140.836L108.795 141.275H108.622V140.836Z" fill="#2F2E41"/>
<path d="M107.678 141.369L104.839 142.355L104.393 142.509L105.084 144.175L102.45 148.261C102.32 148.462 102.257 148.701 102.272 148.941C102.286 149.181 102.377 149.41 102.53 149.595C102.684 149.779 102.892 149.91 103.125 149.967C103.358 150.025 103.603 150.006 103.825 149.914L108.444 147.994L108.558 146.015L109.551 147.534L111.291 146.811L108.369 141.13L107.678 141.369Z" fill="#2F2E41"/>
<path d="M131.334 116.481C131.165 116.481 130.999 116.439 130.85 116.361L115.866 108.513L115.693 107.802L115.367 105.554L115.371 105.533L116.796 98.9479C116.77 98.8913 116.716 98.7986 116.654 98.6938C116.018 97.6134 114.082 94.3251 117.777 89.7974L124.264 82.2162L129.832 81.9761L129.895 82.0563C131.384 83.9293 132.388 86.1421 132.818 88.4978C133.248 90.8536 133.091 93.2793 132.361 95.5595L131.781 106.055L132.403 108.174C132.766 109.42 132.706 110.751 132.232 111.959L132.374 115.391C132.38 115.532 132.357 115.672 132.307 115.804C132.258 115.935 132.182 116.056 132.085 116.157C131.988 116.259 131.871 116.34 131.742 116.396C131.613 116.451 131.474 116.48 131.334 116.481Z" fill="#3F3D56"/>
<path d="M118.336 125.137C118.59 124.986 118.808 124.782 118.975 124.538C119.141 124.295 119.252 124.017 119.301 123.725C119.349 123.434 119.332 123.135 119.253 122.851C119.173 122.566 119.032 122.303 118.84 122.079L122.442 115.869L118.724 116.079L115.873 121.944C115.519 122.292 115.305 122.759 115.271 123.255C115.237 123.752 115.386 124.243 115.69 124.637C115.994 125.03 116.431 125.299 116.918 125.391C117.406 125.483 117.911 125.393 118.336 125.137Z" fill="#FFB7B7"/>
<path d="M119.79 120.571L116.461 117.972L122.51 106.223L120.243 91.2598C120.131 90.5202 120.183 89.7649 120.395 89.0476C120.607 88.3304 120.974 87.6686 121.47 87.1095C121.966 86.5503 122.578 86.1073 123.264 85.8121C123.95 85.5169 124.692 85.3766 125.438 85.4012C126.785 85.4472 128.059 86.0269 128.98 87.0133C129.901 87.9997 130.395 89.3121 130.352 90.6627L129.792 107.7L119.79 120.571Z" fill="#3F3D56"/>
<path d="M120.693 79.0663V73.5437C120.691 71.581 121.468 69.6982 122.852 68.3095C124.235 66.9208 126.113 66.1399 128.071 66.1387C130.029 66.1374 131.907 66.9159 133.292 68.3028C134.678 69.6897 135.457 71.5715 135.458 73.5342V73.5437C136.759 76.2616 135.945 77.5538 135.458 79.0663C135.458 79.3297 135.353 79.5822 135.167 79.7684C134.982 79.9547 134.73 80.0595 134.467 80.0599H121.684C121.422 80.0596 121.17 79.9548 120.984 79.7686C120.798 79.5823 120.693 79.3298 120.693 79.0663Z" fill="#2F2E41"/>
<path d="M125.655 79.7008C128.707 79.7008 131.181 77.2207 131.181 74.1614C131.181 71.1021 128.707 68.6221 125.655 68.6221C122.603 68.6221 120.128 71.1021 120.128 74.1614C120.128 77.2207 122.603 79.7008 125.655 79.7008Z" fill="#FFB7B7"/>
<path d="M131.438 75.6138C131.388 75.6058 131.338 75.5953 131.288 75.5873C130.426 75.4341 129.564 75.2835 128.705 75.1276L128.625 73.1749L127.584 74.9241C125.209 75.7142 122.987 75.2676 120.896 74.282C120.207 73.9539 119.538 73.5842 118.893 73.1749C119.068 72.0949 119.483 71.0679 120.105 70.1691C120.728 69.2703 121.543 68.5223 122.491 67.98C122.57 67.935 122.647 67.8954 122.726 67.8558L122.727 67.8556L122.728 67.855L122.728 67.8541L122.728 67.8531C122.863 67.7897 123 67.7289 123.137 67.6735C124.21 67.2531 125.38 67.1466 126.512 67.3664C127.643 67.5863 128.688 68.1234 129.527 68.9154C131.214 70.5299 131.973 73.196 131.438 75.6138Z" fill="#2F2E41"/>
</g>
<defs>
<clipPath id="clip0_477_6934">
<rect width="160" height="150" fill="white"/>
</clipPath>
</defs>
</svg>
