<svg width="46" height="48" viewBox="0 0 46 48" fill="none" xmlns="http://www.w3.org/2000/svg">
<path d="M22.34 29.28C21.38 30.6 20.0333 31.26 18.3 31.26C16.5667 31.26 15.2133 30.6 14.24 29.28C13.28 27.96 12.8 26.2 12.8 24C12.8 21.8 13.28 20.04 14.24 18.72C15.2133 17.4 16.5667 16.74 18.3 16.74C20.0333 16.74 21.38 17.4 22.34 18.72C23.3133 20.04 23.8 21.8 23.8 24C23.8 26.2 23.3133 27.96 22.34 29.28ZM18.3 29.02C19.34 29.02 20.1333 28.5867 20.68 27.72C21.2267 26.8533 21.5 25.6133 21.5 24C21.5 22.3867 21.2267 21.1467 20.68 20.28C20.1333 19.4133 19.34 18.98 18.3 18.98C17.2733 18.98 16.48 19.4133 15.92 20.28C15.3733 21.1467 15.1 22.3867 15.1 24C15.1 25.6133 15.3733 26.8533 15.92 27.72C16.48 28.5867 17.2733 29.02 18.3 29.02ZM33.0577 23.72C34.431 24.48 35.1177 25.6133 35.1177 27.12C35.1177 28.4 34.671 29.4133 33.7777 30.16C32.8843 30.8933 31.6977 31.26 30.2177 31.26C28.7377 31.26 27.5443 30.8933 26.6377 30.16C25.7443 29.4133 25.2977 28.4 25.2977 27.12C25.2977 26.4 25.4777 25.7467 25.8377 25.16C26.1977 24.56 26.7043 24.08 27.3577 23.72C26.3043 23.0267 25.7777 22.04 25.7777 20.76C25.7777 19.48 26.2043 18.4933 27.0577 17.8C27.911 17.0933 28.9643 16.74 30.2177 16.74C31.4577 16.74 32.5043 17.0933 33.3577 17.8C34.2243 18.4933 34.6577 19.48 34.6577 20.76C34.6577 22.04 34.1243 23.0267 33.0577 23.72ZM30.2177 18.92C29.591 18.92 29.0777 19.0867 28.6777 19.42C28.2777 19.7533 28.0777 20.2333 28.0777 20.86C28.0777 21.46 28.2777 21.9333 28.6777 22.28C29.091 22.6267 29.6043 22.8 30.2177 22.8C30.8177 22.8 31.3243 22.6267 31.7377 22.28C32.151 21.9333 32.3577 21.46 32.3577 20.86C32.3577 20.2333 32.151 19.7533 31.7377 19.42C31.3377 19.0867 30.831 18.92 30.2177 18.92ZM30.2177 29.08C30.991 29.08 31.6177 28.8933 32.0977 28.52C32.5777 28.1333 32.8177 27.5933 32.8177 26.9C32.8177 26.2067 32.5777 25.6733 32.0977 25.3C31.6177 24.9133 30.991 24.72 30.2177 24.72C29.431 24.72 28.7977 24.9133 28.3177 25.3C27.8377 25.6733 27.5977 26.2067 27.5977 26.9C27.5977 27.5933 27.8377 28.1333 28.3177 28.52C28.7977 28.8933 29.431 29.08 30.2177 29.08Z" fill="white"/>
<circle cx="24" cy="24" r="20" stroke="#252525" stroke-width="4"/>
<path d="M24 46C11.8497 46 2 36.1503 2 24C2 11.8497 11.8497 2 24 2" stroke="#00CE53" stroke-width="4"/>
</svg>
