<svg width="14" height="14" viewBox="0 0 14 14" fill="none" xmlns="http://www.w3.org/2000/svg">
<g id="link-2">
<path id="Vector" d="M8.74967 4.0835H10.4997C10.8827 4.0835 11.262 4.15894 11.6158 4.30551C11.9697 4.45209 12.2912 4.66693 12.5621 4.93777C12.8329 5.20861 13.0477 5.53014 13.1943 5.884C13.3409 6.23787 13.4163 6.61714 13.4163 7.00016C13.4163 7.38319 13.3409 7.76246 13.1943 8.11632C13.0477 8.47019 12.8329 8.79172 12.5621 9.06256C12.2912 9.3334 11.9697 9.54824 11.6158 9.69481C11.262 9.84139 10.8827 9.91683 10.4997 9.91683H8.74967M5.24967 9.91683H3.49967C3.11665 9.91683 2.73738 9.84139 2.38351 9.69481C2.02965 9.54824 1.70812 9.3334 1.43728 9.06256C0.890299 8.51558 0.583008 7.77371 0.583008 7.00016C0.583008 6.22661 0.890299 5.48475 1.43728 4.93777C1.98426 4.39079 2.72613 4.0835 3.49967 4.0835H5.24967" stroke="#575757" stroke-linecap="round" stroke-linejoin="round"/>
<path id="Vector_2" d="M4.66699 7H9.33366" stroke="#575757" stroke-linecap="round" stroke-linejoin="round"/>
</g>
</svg>
