<svg width="14" height="14" viewBox="0 0 14 14" fill="none" xmlns="http://www.w3.org/2000/svg">
<path d="M10.9375 5.25H10.5V3.5805C10.5 1.57281 9.0475 0 6.98381 0C4.91181 0 3.5 1.60606 3.5 3.5805V5.25H3.0625C2.09737 5.25 1.3125 6.03487 1.3125 7V12.25C1.3125 13.2151 2.09737 14 3.0625 14H10.9375C11.9026 14 12.6875 13.2151 12.6875 12.25V7C12.6875 6.03487 11.9026 5.25 10.9375 5.25ZM4.375 3.5805C4.375 2.08906 5.39438 0.875 6.98381 0.875C8.55706 0.875 9.625 2.06325 9.625 3.5805V5.25H4.375V3.5805ZM11.8125 12.25C11.8125 12.7321 11.4196 13.125 10.9375 13.125H3.0625C2.57994 13.125 2.1875 12.7321 2.1875 12.25V7C2.1875 6.51788 2.57994 6.125 3.0625 6.125H10.9375C11.4196 6.125 11.8125 6.51788 11.8125 7V12.25ZM7 7.875C6.517 7.875 6.125 8.26656 6.125 8.75C6.125 9.07288 6.30219 9.352 6.5625 9.50381V10.9375C6.5625 11.179 6.7585 11.375 7 11.375C7.2415 11.375 7.4375 11.179 7.4375 10.9375V9.50381C7.69781 9.35244 7.875 9.07288 7.875 8.75C7.875 8.26656 7.48344 7.875 7 7.875Z" fill="white"/>
</svg>
