<svg width="150" height="150" viewBox="0 0 150 150" fill="none" xmlns="http://www.w3.org/2000/svg">
<g clip-path="url(#clip0_1727_1167)">
<path d="M14.6057 126.362L13.2886 121.167C10.9533 120.177 8.56398 119.32 6.1321 118.6L5.96586 121.014L5.29163 118.354C2.27567 117.492 0.223877 117.113 0.223877 117.113C0.223877 117.113 2.99467 127.651 8.80813 135.708L15.5813 136.898L10.3194 137.657C11.0507 138.537 11.8366 139.37 12.6724 140.151C21.1283 148 30.5469 151.601 33.709 148.195C36.8711 144.788 32.5796 135.663 24.1236 127.815C21.5022 125.382 18.2092 123.429 14.9127 121.892L14.6057 126.362Z" fill="#282828"/>
<path d="M27.1318 120.719L28.6895 115.592C27.2021 113.538 25.6 111.569 23.8908 109.695L22.5006 111.675L23.2981 109.05C21.1616 106.754 19.6013 105.369 19.6013 105.369C19.6013 105.369 16.5263 115.823 17.3374 125.725L22.5206 130.244L17.6232 128.174C17.7945 129.305 18.0369 130.425 18.3488 131.526C21.5304 142.616 27.7316 150.567 32.1994 149.285C36.6672 148.003 37.71 137.974 34.5284 126.884C33.5422 123.446 31.7324 120.072 29.7051 117.053L27.1318 120.719Z" fill="#323232"/>
<path d="M104.581 35.5351H103.759V13.0274C103.759 11.3166 103.422 9.62257 102.767 8.04201C102.113 6.46146 101.153 5.02533 99.9435 3.81563C98.7337 2.60593 97.2976 1.64634 95.7171 0.991649C94.1365 0.336962 92.4425 0 90.7317 0H43.0445C39.5894 0 36.2758 1.37252 33.8327 3.81563C31.3896 6.25874 30.0171 9.5723 30.0171 13.0274V136.509C30.0171 138.219 30.354 139.913 31.0087 141.494C31.6634 143.075 32.623 144.511 33.8327 145.72C35.0424 146.93 36.4785 147.89 38.0591 148.544C39.6397 149.199 41.3337 149.536 43.0445 149.536H90.7317C94.1867 149.536 97.5003 148.163 99.9433 145.72C102.386 143.277 103.759 139.964 103.759 136.509V51.5565H104.58L104.581 35.5351Z" fill="#1E1E1E"/>
<path d="M91.2575 3.388H85.0332C85.3195 4.08985 85.4288 4.85134 85.3514 5.60537C85.274 6.35941 85.0124 7.08284 84.5896 7.71193C84.1667 8.34103 83.5957 8.85647 82.9267 9.21286C82.2577 9.56925 81.5113 9.75565 80.7533 9.75562H53.4339C52.6759 9.75558 51.9296 9.56914 51.2607 9.21272C50.5917 8.85631 50.0207 8.34085 49.5979 7.71177C49.1752 7.08268 48.9136 6.35927 48.8362 5.60527C48.7589 4.85127 48.8681 4.08982 49.1544 3.388H43.3405C40.7603 3.388 38.2858 4.41299 36.4613 6.23748C34.6368 8.06196 33.6118 10.5365 33.6118 13.1167V136.419C33.6118 138.999 34.6368 141.473 36.4613 143.298C38.2858 145.122 40.7603 146.147 43.3405 146.147H91.2575C93.8377 146.147 96.3122 145.122 98.1367 143.298C99.9612 141.473 100.986 138.999 100.986 136.419V13.1165C100.986 10.5363 99.9611 8.06185 98.1367 6.2374C96.3122 4.41296 93.8377 3.388 91.2575 3.388Z" fill="#111111"/>
<path d="M61.1932 52.5053C61.193 51.6434 61.4199 50.7967 61.851 50.0504C62.2821 49.304 62.9021 48.6844 63.6488 48.2539C62.9025 47.8229 62.0559 47.5959 61.1941 47.5958C60.3323 47.5957 59.4857 47.8225 58.7393 48.2533C57.9929 48.6842 57.3731 49.3039 56.9422 50.0502C56.5113 50.7966 56.2844 51.6432 56.2844 52.505C56.2844 53.3668 56.5113 54.2134 56.9422 54.9597C57.3731 55.706 57.9929 56.3257 58.7393 56.7566C59.4857 57.1874 60.3323 57.4142 61.1941 57.4141C62.0559 57.414 62.9025 57.187 63.6488 56.756C62.9022 56.3256 62.2821 55.7061 61.851 54.9599C61.42 54.2136 61.1931 53.367 61.1932 52.5053Z" fill="#1E1E1E"/>
<path d="M67.3646 52.5053C67.3644 51.6434 67.5913 50.7967 68.0223 50.0503C68.4534 49.304 69.0735 48.6844 69.8201 48.2539C69.0739 47.8229 68.2273 47.5959 67.3655 47.5958C66.5037 47.5957 65.6571 47.8225 64.9107 48.2533C64.1643 48.6842 63.5445 49.3039 63.1136 50.0502C62.6827 50.7966 62.4558 51.6432 62.4558 52.505C62.4558 53.3668 62.6827 54.2134 63.1136 54.9597C63.5445 55.706 64.1643 56.3257 64.9107 56.7566C65.6571 57.1874 66.5037 57.4142 67.3655 57.4141C68.2273 57.414 69.0739 57.187 69.8201 56.756C69.0736 56.3256 68.4535 55.7061 68.0224 54.9599C67.5914 54.2136 67.3645 53.367 67.3646 52.5053Z" fill="#1E1E1E"/>
<path d="M73.396 57.4142C76.1072 57.4142 78.3051 55.2163 78.3051 52.505C78.3051 49.7938 76.1072 47.5959 73.396 47.5959C70.6847 47.5959 68.4868 49.7938 68.4868 52.505C68.4868 55.2163 70.6847 57.4142 73.396 57.4142Z" fill="#6C63FF"/>
<path d="M81.6003 67.8382H52.9888C52.7164 67.8379 52.4553 67.7295 52.2627 67.5369C52.0701 67.3443 51.9617 67.0832 51.9614 66.8108V38.1993C51.9617 37.9269 52.0701 37.6658 52.2627 37.4731C52.4553 37.2805 52.7164 37.1722 52.9888 37.1719H81.6003C81.8727 37.1722 82.1339 37.2805 82.3265 37.4731C82.5191 37.6658 82.6274 37.9269 82.6277 38.1993V66.8108C82.6274 67.0832 82.5191 67.3443 82.3265 67.5369C82.1339 67.7295 81.8727 67.8379 81.6003 67.8382ZM52.9888 37.5831C52.8254 37.5832 52.6687 37.6482 52.5531 37.7638C52.4376 37.8794 52.3726 38.0361 52.3724 38.1995V66.811C52.3726 66.9744 52.4376 67.1311 52.5531 67.2467C52.6687 67.3622 52.8254 67.4272 52.9888 67.4274H81.6003C81.7638 67.4272 81.9205 67.3622 82.036 67.2467C82.1516 67.1311 82.2166 66.9744 82.2167 66.811V38.1995C82.2166 38.0361 82.1516 37.8794 82.036 37.7638C81.9205 37.6482 81.7638 37.5832 81.6003 37.5831H52.9888Z" fill="#1E1E1E"/>
<path d="M87.9888 89.7703H44.1074V90.1813H87.9888V89.7703Z" fill="#1E1E1E"/>
<path d="M45.4932 87.2043C46.2586 87.2043 46.879 86.5838 46.879 85.8185C46.879 85.0531 46.2586 84.4327 45.4932 84.4327C44.7279 84.4327 44.1074 85.0531 44.1074 85.8185C44.1074 86.5838 44.7279 87.2043 45.4932 87.2043Z" fill="#6C63FF"/>
<path d="M87.9888 103.627H44.1074V104.038H87.9888V103.627Z" fill="#1E1E1E"/>
<path d="M45.4932 101.062C46.2586 101.062 46.879 100.441 46.879 99.6758C46.879 98.9105 46.2586 98.29 45.4932 98.29C44.7279 98.29 44.1074 98.9105 44.1074 99.6758C44.1074 100.441 44.7279 101.062 45.4932 101.062Z" fill="#6C63FF"/>
<path d="M87.1858 119.407H73.3181C73.0785 119.407 72.8489 119.312 72.6795 119.143C72.5101 118.973 72.4148 118.743 72.4146 118.504V113.643C72.4148 113.404 72.5101 113.174 72.6795 113.005C72.8489 112.835 73.0785 112.74 73.3181 112.74H87.1858C87.4253 112.74 87.655 112.835 87.8244 113.005C87.9938 113.174 88.0891 113.404 88.0893 113.643V118.504C88.0891 118.743 87.9938 118.973 87.8244 119.143C87.655 119.312 87.4253 119.407 87.1858 119.407Z" fill="#6C63FF"/>
<path d="M50.0135 87.2043C50.7788 87.2043 51.3993 86.5838 51.3993 85.8185C51.3993 85.0531 50.7788 84.4327 50.0135 84.4327C49.2481 84.4327 48.6277 85.0531 48.6277 85.8185C48.6277 86.5838 49.2481 87.2043 50.0135 87.2043Z" fill="#6C63FF"/>
<path d="M54.534 87.2043C55.2994 87.2043 55.9198 86.5838 55.9198 85.8185C55.9198 85.0531 55.2994 84.4327 54.534 84.4327C53.7686 84.4327 53.1482 85.0531 53.1482 85.8185C53.1482 86.5838 53.7686 87.2043 54.534 87.2043Z" fill="#6C63FF"/>
<path d="M50.0135 101.062C50.7788 101.062 51.3993 100.441 51.3993 99.6758C51.3993 98.9105 50.7788 98.29 50.0135 98.29C49.2481 98.29 48.6277 98.9105 48.6277 99.6758C48.6277 100.441 49.2481 101.062 50.0135 101.062Z" fill="#6C63FF"/>
<path d="M54.534 101.062C55.2994 101.062 55.9198 100.441 55.9198 99.6758C55.9198 98.9105 55.2994 98.29 54.534 98.29C53.7686 98.29 53.1482 98.9105 53.1482 99.6758C53.1482 100.441 53.7686 101.062 54.534 101.062Z" fill="#6C63FF"/>
<path d="M149.218 150H5.05882C4.75022 150 4.50024 149.89 4.50024 149.755C4.50024 149.621 4.75022 149.511 5.05882 149.511H149.218C149.526 149.511 149.776 149.62 149.776 149.755C149.776 149.891 149.526 150 149.218 150Z" fill="#1E1E1E"/>
<path d="M113.601 98.2753C113.7 98.3203 113.794 98.3732 113.884 98.4333L122.89 94.5897L123.211 92.2174L126.81 92.1954L126.597 97.6363L114.711 100.78C114.686 100.862 114.656 100.943 114.621 101.022C114.449 101.389 114.173 101.697 113.827 101.907C113.48 102.117 113.08 102.22 112.675 102.203C112.271 102.187 111.88 102.051 111.552 101.813C111.225 101.575 110.975 101.245 110.834 100.866C110.693 100.486 110.667 100.073 110.76 99.6789C110.853 99.2847 111.06 98.9268 111.356 98.65C111.652 98.3733 112.022 98.1901 112.422 98.1234C112.821 98.0567 113.232 98.1096 113.601 98.2753Z" fill="#FFB8B8"/>
<path d="M128.118 147.579H125.657L124.486 138.085L128.119 138.085L128.118 147.579Z" fill="#FFB8B8"/>
<path d="M123.898 146.876H128.646V149.865H120.909C120.909 149.072 121.224 148.312 121.785 147.751C122.345 147.191 123.106 146.876 123.898 146.876Z" fill="#2F2E41"/>
<path d="M137.692 146.884L135.242 147.125L133.146 137.791L136.761 137.435L137.692 146.884Z" fill="#FFB8B8"/>
<path d="M133.423 146.598L138.148 146.132L138.441 149.107L130.742 149.865C130.703 149.475 130.742 149.08 130.856 148.705C130.97 148.329 131.157 147.979 131.406 147.676C131.655 147.373 131.961 147.121 132.307 146.936C132.654 146.751 133.033 146.636 133.423 146.598Z" fill="#2F2E41"/>
<path d="M128.803 82.1471C131.527 82.1471 133.735 79.9392 133.735 77.2157C133.735 74.4921 131.527 72.2842 128.803 72.2842C126.08 72.2842 123.872 74.4921 123.872 77.2157C123.872 79.9392 126.08 82.1471 128.803 82.1471Z" fill="#FFB8B8"/>
<path d="M125.107 145.659C124.895 145.66 124.69 145.586 124.528 145.45C124.366 145.314 124.257 145.125 124.22 144.917C122.946 137.844 118.781 114.718 118.682 114.078C118.68 114.063 118.679 114.048 118.679 114.033V112.309C118.679 112.246 118.698 112.185 118.735 112.134L119.285 111.363C119.311 111.326 119.345 111.295 119.385 111.274C119.425 111.252 119.469 111.24 119.515 111.238C122.651 111.091 132.924 110.66 133.42 111.28C133.918 111.903 133.742 113.791 133.702 114.163L133.704 114.202L138.319 143.716C138.355 143.951 138.297 144.191 138.157 144.384C138.018 144.577 137.808 144.707 137.573 144.747L134.691 145.222C134.476 145.256 134.256 145.212 134.071 145.098C133.886 144.984 133.747 144.808 133.682 144.601C132.79 141.752 129.801 132.169 128.765 128.46C128.758 128.437 128.743 128.417 128.723 128.403C128.703 128.39 128.678 128.384 128.654 128.388C128.63 128.391 128.608 128.403 128.592 128.422C128.576 128.44 128.567 128.464 128.568 128.488C128.619 132.023 128.745 141.042 128.788 144.157L128.792 144.492C128.794 144.719 128.711 144.939 128.559 145.108C128.407 145.276 128.197 145.382 127.971 145.403L125.191 145.656C125.163 145.658 125.135 145.659 125.107 145.659Z" fill="#2F2E41"/>
<path d="M125.674 84.0862C124.813 84.5978 124.298 85.5379 124.003 86.4946C123.455 88.2657 123.126 90.0969 123.022 91.9477L122.71 97.4894L118.844 112.181C122.194 115.016 124.127 114.371 128.638 112.052C133.148 109.733 133.664 112.826 133.664 112.826L134.566 100.325L135.854 86.6655C135.565 86.3172 135.238 86.0024 134.878 85.727C133.687 84.8008 132.301 84.157 130.825 83.8441C129.349 83.5313 127.821 83.5575 126.357 83.9209L125.674 84.0862Z" fill="#6C63FF"/>
<path d="M124.418 101.242C124.522 101.282 124.623 101.329 124.719 101.384L133.624 96.9269L133.771 94.5124L137.444 94.2592L137.641 99.7631L125.742 103.698C125.645 104.115 125.423 104.492 125.106 104.78C124.789 105.068 124.392 105.252 123.968 105.309C123.544 105.365 123.113 105.291 122.731 105.097C122.35 104.902 122.037 104.596 121.834 104.22C121.631 103.843 121.548 103.413 121.595 102.988C121.642 102.563 121.817 102.162 122.098 101.839C122.378 101.515 122.75 101.285 123.165 101.179C123.579 101.072 124.016 101.094 124.418 101.242Z" fill="#FFB8B8"/>
<path d="M135.79 86.728C137.981 87.5013 138.367 95.8784 138.367 95.8784C135.79 94.4608 132.697 96.7806 132.697 96.7806C132.697 96.7806 132.052 94.5897 131.279 91.7545C131.046 90.9571 131.018 90.1135 131.198 89.3023C131.378 88.4911 131.761 87.7388 132.31 87.1152C132.31 87.1152 133.599 85.9543 135.79 86.728Z" fill="#6C63FF"/>
<path d="M133.225 78.5198C132.611 78.0282 131.773 78.9217 131.773 78.9217L131.281 74.4978C131.281 74.4978 128.209 74.8658 126.243 74.375C124.277 73.8842 123.969 76.157 123.969 76.157C123.868 75.2389 123.847 74.3137 123.908 73.392C124.031 72.286 125.628 71.18 128.455 70.4426C131.281 69.7052 132.756 72.9004 132.756 72.9004C134.722 73.8834 133.84 79.0114 133.225 78.5198Z" fill="#2F2E41"/>
</g>
<defs>
<clipPath id="clip0_1727_1167">
<rect width="149.552" height="150" fill="white" transform="translate(0.223877)"/>
</clipPath>
</defs>
</svg>
