<svg width="32" height="32" viewBox="0 0 32 32" fill="none" xmlns="http://www.w3.org/2000/svg">
<rect width="32" height="32" rx="16" fill="#FFC700"/>
<path d="M16.06 23.26C14.7133 23.26 13.5667 22.9533 12.62 22.34C11.6867 21.7267 11.0333 20.8867 10.66 19.82L12.64 18.66C13.2 20.2333 14.36 21.02 16.12 21.02C16.9867 21.02 17.6333 20.8533 18.06 20.52C18.5 20.1733 18.72 19.7267 18.72 19.18C18.72 18.6067 18.4867 18.1733 18.02 17.88C17.5533 17.5733 16.7267 17.24 15.54 16.88C14.8733 16.68 14.3333 16.4933 13.92 16.32C13.5067 16.1467 13.0667 15.9067 12.6 15.6C12.1467 15.28 11.8067 14.8867 11.58 14.42C11.3533 13.9533 11.24 13.4067 11.24 12.78C11.24 11.54 11.68 10.56 12.56 9.84C13.44 9.10667 14.5 8.74 15.74 8.74C16.86 8.74 17.84 9.01333 18.68 9.56C19.52 10.1067 20.1667 10.86 20.62 11.82L18.68 12.94C18.0933 11.6333 17.1133 10.98 15.74 10.98C15.0733 10.98 14.54 11.14 14.14 11.46C13.74 11.7667 13.54 12.1867 13.54 12.72C13.54 13.24 13.74 13.6533 14.14 13.96C14.5533 14.2533 15.2933 14.5667 16.36 14.9C16.8933 15.0733 17.28 15.2067 17.52 15.3C17.7733 15.38 18.12 15.5133 18.56 15.7C19.0133 15.8867 19.3533 16.0733 19.58 16.26C19.8067 16.4467 20.0467 16.68 20.3 16.96C20.5667 17.24 20.7533 17.56 20.86 17.92C20.9667 18.28 21.02 18.6867 21.02 19.14C21.02 20.4067 20.56 21.4133 19.64 22.16C18.7333 22.8933 17.54 23.26 16.06 23.26Z" fill="white"/>
</svg>
