<svg width="46" height="48" viewBox="0 0 46 48" fill="none" xmlns="http://www.w3.org/2000/svg">
<path d="M22.34 29.28C21.38 30.6 20.0333 31.26 18.3 31.26C16.5667 31.26 15.2133 30.6 14.24 29.28C13.28 27.96 12.8 26.2 12.8 24C12.8 21.8 13.28 20.04 14.24 18.72C15.2133 17.4 16.5667 16.74 18.3 16.74C20.0333 16.74 21.38 17.4 22.34 18.72C23.3133 20.04 23.8 21.8 23.8 24C23.8 26.2 23.3133 27.96 22.34 29.28ZM18.3 29.02C19.34 29.02 20.1333 28.5867 20.68 27.72C21.2267 26.8533 21.5 25.6133 21.5 24C21.5 22.3867 21.2267 21.1467 20.68 20.28C20.1333 19.4133 19.34 18.98 18.3 18.98C17.2733 18.98 16.48 19.4133 15.92 20.28C15.3733 21.1467 15.1 22.3867 15.1 24C15.1 25.6133 15.3733 26.8533 15.92 27.72C16.48 28.5867 17.2733 29.02 18.3 29.02ZM30 22.28C31.3333 22.28 32.46 22.68 33.38 23.48C34.3 24.2667 34.76 25.36 34.76 26.76C34.76 28.16 34.2867 29.26 33.34 30.06C32.3933 30.86 31.2333 31.26 29.86 31.26C28.7533 31.26 27.7733 31.0067 26.92 30.5C26.0667 29.98 25.46 29.2333 25.1 28.26L27.08 27.12C27.4533 28.3867 28.38 29.02 29.86 29.02C30.6467 29.02 31.2733 28.82 31.74 28.42C32.22 28.0067 32.46 27.4533 32.46 26.76C32.46 26.0667 32.2267 25.52 31.76 25.12C31.2933 24.72 30.6733 24.52 29.9 24.52H25.82L26.36 17H34.16V19.16H28.48L28.24 22.28H30Z" fill="white"/>
<circle cx="24" cy="24" r="20" stroke="#252525" stroke-width="4"/>
<path d="M24 46C11.8497 46 2 36.1503 2 24C2 11.8497 11.8497 2 24 2" stroke="#00CE53" stroke-width="4"/>
</svg>
