<svg width="46" height="48" viewBox="0 0 46 48" fill="none" xmlns="http://www.w3.org/2000/svg">
<path d="M18.94 17H20.94V31H18.64V19.46L15.82 20.26L15.26 18.3L18.94 17ZM27.9414 22.28C29.2747 22.28 30.4014 22.68 31.3214 23.48C32.2414 24.2667 32.7014 25.36 32.7014 26.76C32.7014 28.16 32.2281 29.26 31.2814 30.06C30.3347 30.86 29.1747 31.26 27.8014 31.26C26.6947 31.26 25.7147 31.0067 24.8614 30.5C24.0081 29.98 23.4014 29.2333 23.0414 28.26L25.0214 27.12C25.3947 28.3867 26.3214 29.02 27.8014 29.02C28.5881 29.02 29.2147 28.82 29.6814 28.42C30.1614 28.0067 30.4014 27.4533 30.4014 26.76C30.4014 26.0667 30.1681 25.52 29.7014 25.12C29.2347 24.72 28.6147 24.52 27.8414 24.52H23.7614L24.3014 17H32.1014V19.16H26.4214L26.1814 22.28H27.9414Z" fill="white"/>
<circle cx="24" cy="24" r="20" stroke="#252525" stroke-width="4"/>
<path d="M24 46C11.8497 46 2 36.1503 2 24C2 11.8497 11.8497 2 24 2" stroke="#00CE53" stroke-width="4"/>
</svg>
