<svg width="46" height="48" viewBox="0 0 46 48" fill="none" xmlns="http://www.w3.org/2000/svg">
<path d="M22.34 29.28C21.38 30.6 20.0333 31.26 18.3 31.26C16.5667 31.26 15.2133 30.6 14.24 29.28C13.28 27.96 12.8 26.2 12.8 24C12.8 21.8 13.28 20.04 14.24 18.72C15.2133 17.4 16.5667 16.74 18.3 16.74C20.0333 16.74 21.38 17.4 22.34 18.72C23.3133 20.04 23.8 21.8 23.8 24C23.8 26.2 23.3133 27.96 22.34 29.28ZM18.3 29.02C19.34 29.02 20.1333 28.5867 20.68 27.72C21.2267 26.8533 21.5 25.6133 21.5 24C21.5 22.3867 21.2267 21.1467 20.68 20.28C20.1333 19.4133 19.34 18.98 18.3 18.98C17.2733 18.98 16.48 19.4133 15.92 20.28C15.3733 21.1467 15.1 22.3867 15.1 24C15.1 25.6133 15.3733 26.8533 15.92 27.72C16.48 28.5867 17.2733 29.02 18.3 29.02ZM30.0577 21.7C31.511 21.7 32.6977 22.1467 33.6177 23.04C34.5377 23.92 34.9977 25.0667 34.9977 26.48C34.9977 27.8933 34.5377 29.0467 33.6177 29.94C32.6977 30.82 31.511 31.26 30.0577 31.26C28.591 31.26 27.3977 30.82 26.4777 29.94C25.5577 29.0467 25.0977 27.8933 25.0977 26.48C25.0977 25.4133 25.3777 24.4733 25.9377 23.66L30.3777 17H32.9977L29.7977 21.7H30.0577ZM30.0577 29.08C30.831 29.08 31.4643 28.8467 31.9577 28.38C32.451 27.9 32.6977 27.2667 32.6977 26.48C32.6977 25.6933 32.451 25.0667 31.9577 24.6C31.4643 24.12 30.831 23.88 30.0577 23.88C29.271 23.88 28.631 24.12 28.1377 24.6C27.6443 25.0667 27.3977 25.6933 27.3977 26.48C27.3977 27.2667 27.6443 27.9 28.1377 28.38C28.631 28.8467 29.271 29.08 30.0577 29.08Z" fill="white"/>
<circle cx="24" cy="24" r="20" stroke="#252525" stroke-width="4"/>
<path d="M24 46C11.8497 46 2 36.1503 2 24C2 11.8497 11.8497 2 24 2" stroke="#00CE53" stroke-width="4"/>
</svg>
