<svg width="32" height="32" viewBox="0 0 32 32" fill="none" xmlns="http://www.w3.org/2000/svg">
<path d="M11.2438 11.5219C8.63447 12.6781 6.55635 14.7531 5.39697 17.3625C5.22197 17.7562 5.4001 18.2156 5.79385 18.3906C5.89697 18.4375 6.00322 18.4594 6.10947 18.4594C6.40947 18.4594 6.69385 18.2875 6.82197 17.9969C7.8251 15.7406 9.61885 13.9469 11.8751 12.9469C12.2688 12.7719 12.447 12.3125 12.272 11.9187C12.1001 11.525 11.6376 11.3469 11.2438 11.5219ZM17.9501 8.13125C18.1751 7.7625 18.3126 7.33437 18.3126 6.87187C18.3126 5.53437 17.2282 4.45312 15.8938 4.45312C14.5563 4.45312 13.4751 5.5375 13.4751 6.87187C13.4751 7.33437 13.6126 7.76563 13.8376 8.13125C7.06572 9.12813 1.85322 14.975 1.85322 22.0187V23.7094C1.85322 24.1406 2.20322 24.4906 2.63447 24.4906H29.1563C29.5876 24.4906 29.9376 24.1406 29.9376 23.7094V22.0187C29.9345 14.975 24.7188 9.13125 17.9501 8.13125ZM28.3751 22.9281H3.4126V22.0187C3.4126 15.1375 9.0126 9.54062 15.8938 9.54062C22.7751 9.54062 28.3751 15.1375 28.3751 22.0187V22.9281ZM29.1532 26.0594H2.63135C2.2001 26.0594 1.8501 26.4094 1.8501 26.8406C1.8501 27.2719 2.2001 27.6219 2.63135 27.6219H29.1532C29.5845 27.6219 29.9345 27.2719 29.9345 26.8406C29.9345 26.4094 29.5845 26.0594 29.1532 26.0594Z" fill="white"/>
</svg>
