<svg width="46" height="48" viewBox="0 0 46 48" fill="none" xmlns="http://www.w3.org/2000/svg">
<path d="M19.68 22.72C20.6933 22.96 21.5133 23.4333 22.14 24.14C22.78 24.8333 23.1 25.7067 23.1 26.76C23.1 28.16 22.6267 29.26 21.68 30.06C20.7333 30.86 19.5733 31.26 18.2 31.26C17.1333 31.26 16.1733 31.0133 15.32 30.52C14.48 30.0267 13.8733 29.3067 13.5 28.36L15.46 27.22C15.8733 28.42 16.7867 29.02 18.2 29.02C19 29.02 19.6333 28.82 20.1 28.42C20.5667 28.0067 20.8 27.4533 20.8 26.76C20.8 26.0667 20.5667 25.52 20.1 25.12C19.6333 24.72 19 24.52 18.2 24.52H17.68L16.76 23.14L19.78 19.16H13.92V17H22.52V18.96L19.68 22.72ZM29.2031 22.28C30.5365 22.28 31.6631 22.68 32.5831 23.48C33.5031 24.2667 33.9631 25.36 33.9631 26.76C33.9631 28.16 33.4898 29.26 32.5431 30.06C31.5965 30.86 30.4365 31.26 29.0631 31.26C27.9565 31.26 26.9765 31.0067 26.1231 30.5C25.2698 29.98 24.6631 29.2333 24.3031 28.26L26.2831 27.12C26.6565 28.3867 27.5831 29.02 29.0631 29.02C29.8498 29.02 30.4765 28.82 30.9431 28.42C31.4231 28.0067 31.6631 27.4533 31.6631 26.76C31.6631 26.0667 31.4298 25.52 30.9631 25.12C30.4965 24.72 29.8765 24.52 29.1031 24.52H25.0231L25.5631 17H33.3631V19.16H27.6831L27.4431 22.28H29.2031Z" fill="white"/>
<circle cx="24" cy="24" r="20" stroke="#252525" stroke-width="4"/>
<path d="M24 46C11.8497 46 2 36.1503 2 24C2 11.8497 11.8497 2 24 2" stroke="#00CE53" stroke-width="4"/>
</svg>
