<svg width="46" height="48" viewBox="0 0 46 48" fill="none" xmlns="http://www.w3.org/2000/svg">
<path d="M18.68 22.72C19.6933 22.96 20.5133 23.4333 21.14 24.14C21.78 24.8333 22.1 25.7067 22.1 26.76C22.1 28.16 21.6267 29.26 20.68 30.06C19.7333 30.86 18.5733 31.26 17.2 31.26C16.1333 31.26 15.1733 31.0133 14.32 30.52C13.48 30.0267 12.8733 29.3067 12.5 28.36L14.46 27.22C14.8733 28.42 15.7867 29.02 17.2 29.02C18 29.02 18.6333 28.82 19.1 28.42C19.5667 28.0067 19.8 27.4533 19.8 26.76C19.8 26.0667 19.5667 25.52 19.1 25.12C18.6333 24.72 18 24.52 17.2 24.52H16.68L15.76 23.14L18.78 19.16H12.92V17H21.52V18.96L18.68 22.72ZM33.1408 29.28C32.1808 30.6 30.8341 31.26 29.1008 31.26C27.3674 31.26 26.0141 30.6 25.0408 29.28C24.0808 27.96 23.6008 26.2 23.6008 24C23.6008 21.8 24.0808 20.04 25.0408 18.72C26.0141 17.4 27.3674 16.74 29.1008 16.74C30.8341 16.74 32.1808 17.4 33.1408 18.72C34.1141 20.04 34.6008 21.8 34.6008 24C34.6008 26.2 34.1141 27.96 33.1408 29.28ZM29.1008 29.02C30.1408 29.02 30.9341 28.5867 31.4808 27.72C32.0274 26.8533 32.3008 25.6133 32.3008 24C32.3008 22.3867 32.0274 21.1467 31.4808 20.28C30.9341 19.4133 30.1408 18.98 29.1008 18.98C28.0741 18.98 27.2808 19.4133 26.7208 20.28C26.1741 21.1467 25.9008 22.3867 25.9008 24C25.9008 25.6133 26.1741 26.8533 26.7208 27.72C27.2808 28.5867 28.0741 29.02 29.1008 29.02Z" fill="white"/>
<circle cx="24" cy="24" r="20" stroke="#252525" stroke-width="4"/>
<path d="M24 46C11.8497 46 2 36.1503 2 24C2 11.8497 11.8497 2 24 2" stroke="#00CE53" stroke-width="4"/>
</svg>
