<svg width="24" height="24" viewBox="0 0 24 24" fill="none" xmlns="http://www.w3.org/2000/svg">
<path d="M20.1672 4.30334L16.7438 1.3918C16.4867 1.13466 16.2079 0.885742 15.8445 0.885742H4.93719C4.17982 0.885742 3.28564 1.7086 3.28564 2.46597V21.666C3.28564 22.4233 3.83696 22.8286 4.59433 22.8286H19.3372C20.0946 22.8286 20.4285 22.4233 20.4285 21.666V5.27294C20.4285 4.90917 20.4244 4.56048 20.1672 4.30334ZM19.2158 5.00003H16.6571V2.82151L19.2158 5.00003ZM19.0571 21.4572H4.65707V2.25717H15.9714V5.30071C15.9714 5.49031 16.0677 5.68574 16.2573 5.68574H19.0571V21.4572Z" fill="white"/>
<path d="M17.0001 7.39999C17.0001 7.21073 16.8468 7.05713 16.6572 7.05713H7.05721C6.86796 7.05713 6.71436 7.21073 6.71436 7.39999V18.0286C6.71436 18.2182 6.86796 18.3714 7.05721 18.3714H16.6572C16.8468 18.3714 17.0001 18.2182 17.0001 18.0286V7.39999ZM10.1429 15.6286V14.2571H14.6001V15.6286H10.1429ZM14.6001 16.3143V17.6857H10.1429V16.3143H14.6001ZM14.6001 13.5714H10.1429V11.8571H14.6001V13.5714ZM15.2858 11.8571H16.3144V13.5714H15.2858V11.8571ZM9.45721 13.5714H7.40007V11.8571H9.45721V13.5714ZM7.40007 11.1714V9.79999H9.45721V11.1714H7.40007ZM7.40007 14.2571H9.45721V15.6286H7.40007V14.2571ZM15.2858 14.2571H16.3144V15.6286H15.2858V14.2571ZM16.3144 11.1714H15.2858V9.79999H16.3144V11.1714ZM14.6001 11.1714H10.1429V9.79999H14.6001V11.1714ZM10.1429 9.11427V7.74284H14.6001V9.11427H10.1429ZM9.45721 7.74284V9.11427H7.40007V7.74284H9.45721ZM7.40007 16.3143H9.45721V17.6857H7.40007V16.3143ZM15.2858 17.6857V16.3143H16.3144V17.6857H15.2858ZM16.3144 9.11427H15.2858V7.74284H16.3144V9.11427Z" fill="white"/>
</svg>
