<svg width="46" height="48" viewBox="0 0 46 48" fill="none" xmlns="http://www.w3.org/2000/svg">
<path d="M21.34 29.28C20.38 30.6 19.0333 31.26 17.3 31.26C15.5667 31.26 14.2133 30.6 13.24 29.28C12.28 27.96 11.8 26.2 11.8 24C11.8 21.8 12.28 20.04 13.24 18.72C14.2133 17.4 15.5667 16.74 17.3 16.74C19.0333 16.74 20.38 17.4 21.34 18.72C22.3133 20.04 22.8 21.8 22.8 24C22.8 26.2 22.3133 27.96 21.34 29.28ZM17.3 29.02C18.34 29.02 19.1333 28.5867 19.68 27.72C20.2267 26.8533 20.5 25.6133 20.5 24C20.5 22.3867 20.2267 21.1467 19.68 20.28C19.1333 19.4133 18.34 18.98 17.3 18.98C16.2733 18.98 15.48 19.4133 14.92 20.28C14.3733 21.1467 14.1 22.3867 14.1 24C14.1 25.6133 14.3733 26.8533 14.92 27.72C15.48 28.5867 16.2733 29.02 17.3 29.02ZM33.9377 29.28C32.9777 30.6 31.631 31.26 29.8977 31.26C28.1643 31.26 26.811 30.6 25.8377 29.28C24.8777 27.96 24.3977 26.2 24.3977 24C24.3977 21.8 24.8777 20.04 25.8377 18.72C26.811 17.4 28.1643 16.74 29.8977 16.74C31.631 16.74 32.9777 17.4 33.9377 18.72C34.911 20.04 35.3977 21.8 35.3977 24C35.3977 26.2 34.911 27.96 33.9377 29.28ZM29.8977 29.02C30.9377 29.02 31.731 28.5867 32.2777 27.72C32.8243 26.8533 33.0977 25.6133 33.0977 24C33.0977 22.3867 32.8243 21.1467 32.2777 20.28C31.731 19.4133 30.9377 18.98 29.8977 18.98C28.871 18.98 28.0777 19.4133 27.5177 20.28C26.971 21.1467 26.6977 22.3867 26.6977 24C26.6977 25.6133 26.971 26.8533 27.5177 27.72C28.0777 28.5867 28.871 29.02 29.8977 29.02Z" fill="white"/>
<circle cx="24" cy="24" r="20" stroke="#252525" stroke-width="4"/>
<path d="M24 46C11.8497 46 2 36.1503 2 24C2 11.8497 11.8497 2 24 2" stroke="#00CE53" stroke-width="4"/>
</svg>
