<svg width="32" height="32" viewBox="0 0 32 32" fill="none" xmlns="http://www.w3.org/2000/svg">
<path d="M11.2437 11.5219C8.63435 12.6781 6.55623 14.7531 5.39685 17.3625C5.22185 17.7562 5.39998 18.2156 5.79373 18.3906C5.89685 18.4375 6.0031 18.4594 6.10935 18.4594C6.40935 18.4594 6.69373 18.2875 6.82185 17.9969C7.82498 15.7406 9.61872 13.9469 11.875 12.9469C12.2687 12.7719 12.4468 12.3125 12.2718 11.9187C12.1 11.525 11.6375 11.3469 11.2437 11.5219ZM17.95 8.13125C18.175 7.7625 18.3125 7.33437 18.3125 6.87187C18.3125 5.53437 17.2281 4.45312 15.8937 4.45312C14.5562 4.45312 13.475 5.5375 13.475 6.87187C13.475 7.33437 13.6125 7.76563 13.8375 8.13125C7.0656 9.12813 1.8531 14.975 1.8531 22.0187V23.7094C1.8531 24.1406 2.2031 24.4906 2.63435 24.4906H29.1562C29.5875 24.4906 29.9375 24.1406 29.9375 23.7094V22.0187C29.9343 14.975 24.7187 9.13125 17.95 8.13125ZM28.375 22.9281H3.41248V22.0187C3.41248 15.1375 9.01248 9.54062 15.8937 9.54062C22.775 9.54062 28.375 15.1375 28.375 22.0187V22.9281ZM29.1531 26.0594H2.63123C2.19998 26.0594 1.84998 26.4094 1.84998 26.8406C1.84998 27.2719 2.19998 27.6219 2.63123 27.6219H29.1531C29.5843 27.6219 29.9343 27.2719 29.9343 26.8406C29.9343 26.4094 29.5843 26.0594 29.1531 26.0594Z" fill="#575757"/>
</svg>
