<svg width="24" height="24" viewBox="0 0 24 24" fill="none" xmlns="http://www.w3.org/2000/svg">
<g id="suitcase-work-svgrepo-com 1" clip-path="url(#clip0_732_515)">
<path id="suitcase work" d="M24.0008 7.51742C23.9979 5.95768 22.9069 4.59914 21.4214 4.58338H16.5817V2.42629C16.581 2.00479 16.4134 1.60073 16.1155 1.30257C15.8176 1.0044 15.4136 0.836436 14.9921 0.835449H9.00787C8.58607 0.836107 8.18174 1.0039 7.88341 1.30207C7.58508 1.60025 7.41708 2.0045 7.4162 2.42629V4.58338H2.57854C1.09182 4.59914 0.00207519 5.95768 1.07055e-06 7.51742V10.3229C0.00276922 10.3585 0.00276922 10.3943 1.07055e-06 10.4299C-0.000144705 10.5556 0.0145975 10.681 0.0439545 10.8032C0.22549 11.4241 0.624007 11.959 1.16689 12.3107V19.6286C1.1693 20.567 1.54313 21.4662 2.20666 22.1298C2.87019 22.7933 3.76945 23.1671 4.70783 23.1695H19.2913C20.2297 23.1668 21.1288 22.7929 21.7924 22.1294C22.456 21.466 22.8301 20.5669 22.8331 19.6286V12.3086C23.3748 11.955 23.7721 11.4193 23.9531 10.7983C23.9825 10.6777 23.9973 10.554 23.9971 10.4299C23.9971 10.4071 23.9971 10.3884 23.9971 10.3739C23.9971 10.3594 23.9971 10.3424 23.9971 10.3229L24.0008 7.51742ZM8.41675 2.42589C8.41827 2.26962 8.48103 2.12019 8.59158 2.00972C8.70212 1.89926 8.8516 1.83658 9.00787 1.83517H14.9921C15.1484 1.83658 15.2979 1.89926 15.4084 2.00972C15.5189 2.12019 15.5817 2.26962 15.5832 2.42589V4.58296H8.41467L8.41675 2.42589ZM21.8317 12.9072V19.6273C21.8276 20.2999 21.5586 20.9437 21.0831 21.4192C20.6076 21.8948 19.9639 22.1639 19.2913 22.1681H4.70783C4.03523 22.1638 3.3914 21.8947 2.91571 21.4192C2.44003 20.9437 2.17077 20.2999 2.1662 19.6273V12.9072C2.20022 12.9242 2.24337 12.9396 2.27821 12.9566C2.47152 13.0478 2.67188 13.1366 2.88303 13.2229C4.85877 13.9331 6.92439 14.3626 9.01949 14.4989V15.5646C9.02015 15.8957 9.15201 16.2132 9.38618 16.4473C9.62036 16.6815 9.93777 16.8134 10.2689 16.814H13.7282C14.0594 16.8136 14.3769 16.6818 14.6111 16.4476C14.8454 16.2134 14.9771 15.8958 14.9776 15.5646V14.4972C15.9945 14.4131 17.0062 14.2756 18.0087 14.0853C19.0684 13.8926 20.1083 13.6034 21.1153 13.2212C21.3289 13.1341 21.5301 13.0441 21.7247 12.9524C21.7608 12.9371 21.7977 12.9209 21.8317 12.906V12.9072ZM10.0192 13.5655V13.1059C10.021 13.0405 10.0478 12.9782 10.0941 12.9319C10.1404 12.8856 10.2027 12.8588 10.2681 12.857H13.7273C13.7928 12.8588 13.855 12.8856 13.9013 12.9319C13.9476 12.9782 13.9744 13.0405 13.9762 13.1059V13.5655V15.5642C13.9741 15.6295 13.9472 15.6916 13.901 15.7378C13.8548 15.7841 13.7927 15.811 13.7273 15.813H10.2702C10.2048 15.8111 10.1426 15.7842 10.0964 15.738C10.0501 15.6917 10.0233 15.6295 10.0213 15.5642V13.5655H10.0192ZM21.4206 5.586C22.2208 5.586 22.997 6.40113 22.997 7.51866V10.3075C22.9946 10.3297 22.9936 10.352 22.994 10.3743C22.9935 10.3987 22.9944 10.4231 22.997 10.4473C22.9939 10.4928 22.9874 10.538 22.9775 10.5825C22.926 10.9256 22.4992 11.3939 21.728 11.8303C21.6724 11.8619 21.6143 11.893 21.5559 11.9228C21.4974 11.9527 21.4414 11.9822 21.38 12.012C21.307 12.0485 21.2302 12.0842 21.1514 12.1195C21.0232 12.178 20.8901 12.2356 20.7461 12.2912C19.4358 12.7763 18.0753 13.1131 16.69 13.2951C16.1424 13.3756 15.57 13.4411 14.9759 13.4929V13.1051C14.9757 12.7737 14.844 12.4559 14.6098 12.2215C14.3755 11.9871 14.0579 11.8552 13.7265 11.8548H10.2702C9.93884 11.8554 9.62121 11.9873 9.38699 12.2217C9.15277 12.456 9.02106 12.7737 9.02073 13.1051V13.4929C8.53954 13.4506 8.07286 13.3988 7.6207 13.3374C6.1284 13.1605 4.66198 12.8094 3.25139 12.2912C3.10579 12.2352 2.96972 12.1755 2.83657 12.1161C2.76439 12.0834 2.69636 12.0506 2.62915 12.0174C2.56195 11.9842 2.49307 11.951 2.42795 11.917C2.37443 11.8888 2.323 11.8619 2.27239 11.8341C1.49874 11.3964 1.06941 10.9273 1.01797 10.5859C1.00885 10.5417 1.00221 10.4972 0.998068 10.4523C0.998068 10.4423 1.00055 10.4245 1.00263 10.3988V10.3722V10.3465C1.00055 10.322 0.998897 10.305 0.998068 10.2942V7.51784C0.998068 6.4003 1.77585 5.58601 2.57687 5.58518L21.4206 5.586Z" fill="white"/>
</g>
<defs>
<clipPath id="clip0_732_515">
<rect width="24" height="24" fill="white"/>
</clipPath>
</defs>
</svg>
