<svg width="32" height="32" viewBox="0 0 32 32" fill="none" xmlns="http://www.w3.org/2000/svg">
<path d="M8.58481 20.1101C8.52218 19.9656 8.46504 19.817 8.41475 19.6662C8.33475 19.4271 8.07875 19.2963 7.83647 19.3777C7.59738 19.4573 7.46755 19.716 7.54755 19.9555C7.60607 20.1315 7.67189 20.3039 7.74549 20.4726C7.82001 20.6458 7.98824 20.7487 8.16515 20.7487C8.22595 20.7487 8.28767 20.7373 8.34618 20.7112C8.57841 20.6111 8.68492 20.3423 8.58481 20.1101Z" fill="#575757"/>
<path d="M13.7952 23.5726C12.0229 23.5726 10.3808 22.7502 9.29054 21.317C9.1374 21.1163 8.85031 21.0779 8.65009 21.2306C8.4494 21.3833 8.41054 21.6699 8.56323 21.8706C9.82814 23.5333 11.7349 24.4869 13.7952 24.4869C14.048 24.4869 14.2524 24.2825 14.2524 24.0297C14.2524 23.7769 14.0476 23.5726 13.7952 23.5726Z" fill="#575757"/>
<path d="M23.9512 28.6094H4.7512C4.24651 28.6094 3.83691 29.0185 3.83691 29.5237C3.83691 30.0283 4.24651 30.4379 4.7512 30.4379H23.9512C24.4559 30.4379 24.8655 30.0283 24.8655 29.5237C24.8655 29.0185 24.4559 28.6094 23.9512 28.6094Z" fill="#575757"/>
<path d="M28.2263 13.5787C28.1811 13.1101 27.787 12.6091 27.3162 12.6091H24.038V12.1903C24.038 11.1805 23.5479 9.86621 22.5381 9.86621H5.17718C4.16735 9.86621 3.46655 10.7234 3.46655 11.7332V17.3912C3.46655 23.0598 8.1733 27.6715 13.8419 27.6715C17.7504 27.6715 21.2032 25.4786 22.9431 22.2598C23.8638 22.124 26.5687 21.5915 27.5676 20.2594C28.614 18.8651 28.3415 14.7764 28.2263 13.5787ZM5.29512 14.4376H22.2094V16.2662H5.29512V14.4376ZM22.2094 11.6948V13.5234H5.29512V11.6948H22.2094ZM13.7523 25.8429C9.08484 25.8429 5.29512 22.0591 5.29512 17.3912V17.1805H22.2094V17.3912C22.2094 22.0591 18.4197 25.8429 13.7523 25.8429ZM26.1276 19.0909C25.8108 19.5133 24.7063 19.9508 23.7226 20.2168C23.984 19.3117 24.0375 18.3796 24.0375 17.3917V14.4381H26.47C26.5888 16.7234 26.4942 18.6013 26.1276 19.0909Z" fill="#575757"/>
<path d="M13.5237 9.23774C14.0283 9.23774 14.4379 8.82814 14.4379 8.32345V2.38059C14.4379 1.87591 14.0283 1.46631 13.5237 1.46631C13.019 1.46631 12.6094 1.87591 12.6094 2.38059V8.32345C12.6094 8.82859 13.019 9.23774 13.5237 9.23774Z" fill="#575757"/>
<path d="M18.0952 9.23774C18.5999 9.23774 19.0095 8.82814 19.0095 8.32345V2.38059C19.0095 1.87591 18.5999 1.46631 18.0952 1.46631C17.5905 1.46631 17.1809 1.87591 17.1809 2.38059V8.32345C17.1809 8.82859 17.5905 9.23774 18.0952 9.23774Z" fill="#575757"/>
<path d="M8.95237 9.23774C9.45706 9.23774 9.86666 8.82814 9.86666 8.32345V2.38059C9.86666 1.87591 9.45706 1.46631 8.95237 1.46631C8.44769 1.46631 8.03809 1.87591 8.03809 2.38059V8.32345C8.03809 8.82859 8.44769 9.23774 8.95237 9.23774Z" fill="#575757"/>
</svg>
