<svg width="32" height="32" viewBox="0 0 32 32" fill="none" xmlns="http://www.w3.org/2000/svg">
<path d="M8.58432 20.1101C8.52169 19.9656 8.46455 19.817 8.41426 19.6662C8.33426 19.4271 8.07826 19.2963 7.83598 19.3777C7.59689 19.4573 7.46706 19.716 7.54706 19.9555C7.60558 20.1315 7.67141 20.3039 7.74501 20.4726C7.81952 20.6458 7.98775 20.7487 8.16466 20.7487C8.22546 20.7487 8.28718 20.7373 8.34569 20.7112C8.57792 20.6111 8.68443 20.3423 8.58432 20.1101Z" fill="white"/>
<path d="M13.795 23.5726C12.0226 23.5726 10.3806 22.7502 9.2903 21.317C9.13716 21.1163 8.85007 21.0779 8.64984 21.2306C8.44916 21.3833 8.4103 21.6699 8.56298 21.8706C9.8279 23.5333 11.7346 24.4869 13.795 24.4869C14.0478 24.4869 14.2521 24.2825 14.2521 24.0297C14.2521 23.7769 14.0473 23.5726 13.795 23.5726Z" fill="white"/>
<path d="M23.9507 28.6094H4.75071C4.24603 28.6094 3.83643 29.0185 3.83643 29.5237C3.83643 30.0283 4.24603 30.4379 4.75071 30.4379H23.9507C24.4554 30.4379 24.865 30.0283 24.865 29.5237C24.865 29.0185 24.4554 28.6094 23.9507 28.6094Z" fill="white"/>
<path d="M28.2261 13.5787C28.1808 13.1101 27.7868 12.6091 27.3159 12.6091H24.0377V12.1903C24.0377 11.1805 23.5477 9.86621 22.5379 9.86621H5.17694C4.16711 9.86621 3.46631 10.7234 3.46631 11.7332V17.3912C3.46631 23.0598 8.17305 27.6715 13.8416 27.6715C17.7502 27.6715 21.203 25.4786 22.9429 22.2598C23.8636 22.124 26.5685 21.5915 27.5673 20.2594C28.6137 18.8651 28.3413 14.7764 28.2261 13.5787ZM5.29488 14.4376H22.2092V16.2662H5.29488V14.4376ZM22.2092 11.6948V13.5234H5.29488V11.6948H22.2092ZM13.752 25.8429C9.08459 25.8429 5.29488 22.0591 5.29488 17.3912V17.1805H22.2092V17.3912C22.2092 22.0591 18.4195 25.8429 13.752 25.8429ZM26.1273 19.0909C25.8105 19.5133 24.7061 19.9508 23.7223 20.2168C23.9838 19.3117 24.0373 18.3796 24.0373 17.3917V14.4381H26.4697C26.5886 16.7234 26.494 18.6013 26.1273 19.0909Z" fill="white"/>
<path d="M13.5237 9.23774C14.0283 9.23774 14.4379 8.82814 14.4379 8.32345V2.38059C14.4379 1.87591 14.0283 1.46631 13.5237 1.46631C13.019 1.46631 12.6094 1.87591 12.6094 2.38059V8.32345C12.6094 8.82859 13.019 9.23774 13.5237 9.23774Z" fill="white"/>
<path d="M18.0949 9.23774C18.5996 9.23774 19.0092 8.82814 19.0092 8.32345V2.38059C19.0092 1.87591 18.5996 1.46631 18.0949 1.46631C17.5903 1.46631 17.1807 1.87591 17.1807 2.38059V8.32345C17.1807 8.82859 17.5903 9.23774 18.0949 9.23774Z" fill="white"/>
<path d="M8.95188 9.23774C9.45657 9.23774 9.86617 8.82814 9.86617 8.32345V2.38059C9.86617 1.87591 9.45657 1.46631 8.95188 1.46631C8.4472 1.46631 8.0376 1.87591 8.0376 2.38059V8.32345C8.0376 8.82859 8.4472 9.23774 8.95188 9.23774Z" fill="white"/>
</svg>
