<svg width="16" height="16" viewBox="0 0 16 16" fill="none" xmlns="http://www.w3.org/2000/svg">
<g clip-path="url(#clip0_1633_357)">
<path d="M8 13C10.7614 13 13 10.7614 13 8C13 5.23857 10.7614 3 8 3C5.23857 3 3 5.23857 3 8C3 10.7614 5.23857 13 8 13Z" stroke="white" stroke-linecap="round" stroke-linejoin="round"/>
<path d="M8 10C9.1046 10 10 9.1046 10 8C10 6.8954 9.1046 6 8 6C6.8954 6 6 6.8954 6 8C6 9.1046 6.8954 10 8 10Z" stroke="white" stroke-linecap="round" stroke-linejoin="round"/>
<path d="M8 2.66683V1.3335" stroke="white" stroke-linecap="round" stroke-linejoin="round"/>
<path d="M2.66666 8H1.33333" stroke="white" stroke-linecap="round" stroke-linejoin="round"/>
<path d="M8 13.3335V14.6668" stroke="white" stroke-linecap="round" stroke-linejoin="round"/>
<path d="M13.3333 8H14.6667" stroke="white" stroke-linecap="round" stroke-linejoin="round"/>
</g>
<defs>
<clipPath id="clip0_1633_357">
<rect width="16" height="16" fill="white"/>
</clipPath>
</defs>
</svg>
