<svg width="24" height="24" viewBox="0 0 24 24" fill="none" xmlns="http://www.w3.org/2000/svg">
<g clip-path="url(#clip0_477_4140)">
<path d="M23 18H20V15C20 14.7348 19.8946 14.4804 19.7071 14.2929C19.5196 14.1054 19.2652 14 19 14C18.7348 14 18.4804 14.1054 18.2929 14.2929C18.1054 14.4804 18 14.7348 18 15V18H15C14.7348 18 14.4804 18.1054 14.2929 18.2929C14.1054 18.4804 14 18.7348 14 19C14 19.2652 14.1054 19.5196 14.2929 19.7071C14.4804 19.8946 14.7348 20 15 20H18V23C18 23.2652 18.1054 23.5196 18.2929 23.7071C18.4804 23.8946 18.7348 24 19 24C19.2652 24 19.5196 23.8946 19.7071 23.7071C19.8946 23.5196 20 23.2652 20 23V20H23C23.2652 20 23.5196 19.8946 23.7071 19.7071C23.8946 19.5196 24 19.2652 24 19C24 18.7348 23.8946 18.4804 23.7071 18.2929C23.5196 18.1054 23.2652 18 23 18Z" fill="white"/>
<path d="M11.0001 7V11.586L8.29308 14.293C8.19757 14.3852 8.12139 14.4956 8.06898 14.6176C8.01657 14.7396 7.98898 14.8708 7.98783 15.0036C7.98668 15.1364 8.01198 15.2681 8.06226 15.391C8.11254 15.5139 8.18679 15.6255 8.28069 15.7194C8.37458 15.8133 8.48623 15.8875 8.60913 15.9378C8.73202 15.9881 8.8637 16.0134 8.99648 16.0123C9.12926 16.0111 9.26048 15.9835 9.38249 15.9311C9.50449 15.8787 9.61483 15.8025 9.70708 15.707L12.7071 12.707C12.8946 12.5195 13 12.2652 13.0001 12V7C13.0001 6.73478 12.8947 6.48043 12.7072 6.29289C12.5197 6.10536 12.2653 6 12.0001 6C11.7349 6 11.4805 6.10536 11.293 6.29289C11.1054 6.48043 11.0001 6.73478 11.0001 7Z" fill="white"/>
<path d="M14.7279 21.6239C12.6014 22.2232 10.3361 22.1003 8.2869 21.2745C6.23767 20.4486 4.52023 18.9664 3.40355 17.06C2.28687 15.1535 1.83402 12.9306 2.11593 10.7393C2.39784 8.54793 3.39858 6.51198 4.96142 4.95028C6.52426 3.38857 8.56093 2.3893 10.7525 2.10899C12.944 1.82867 15.1666 2.28313 17.0722 3.40119C18.9778 4.51925 20.4588 6.23777 21.2832 8.28759C22.1076 10.3374 22.2288 12.6028 21.6279 14.7289C21.5873 14.8567 21.5728 14.9914 21.5852 15.125C21.5977 15.2585 21.6369 15.3882 21.7005 15.5063C21.7641 15.6244 21.8508 15.7285 21.9555 15.8123C22.0602 15.8962 22.1806 15.9582 22.3097 15.9946C22.4389 16.0309 22.574 16.041 22.707 16.024C22.8401 16.0071 22.9684 15.9636 23.0843 15.8961C23.2002 15.8286 23.3013 15.7384 23.3816 15.631C23.462 15.5236 23.5199 15.4011 23.5519 15.2709C24.2734 12.7177 24.1275 9.99726 23.1371 7.53584C22.1468 5.07442 20.3679 3.01105 18.0792 1.66896C15.7905 0.326867 13.1212 -0.218116 10.4896 0.119384C7.85795 0.456884 5.41261 1.6578 3.53664 3.534C1.66066 5.4102 0.460044 7.85569 0.122862 10.4874C-0.21432 13.119 0.330985 15.7882 1.67335 18.0768C3.01572 20.3653 5.07931 22.1439 7.54085 23.134C10.0024 24.1241 12.7228 24.2696 15.2759 23.5479C15.4051 23.5147 15.5263 23.456 15.6324 23.3753C15.7385 23.2946 15.8274 23.1934 15.8939 23.0778C15.9603 22.9622 16.003 22.8345 16.0194 22.7022C16.0358 22.5699 16.0255 22.4356 15.9892 22.3073C15.953 22.179 15.8914 22.0592 15.8081 21.9551C15.7249 21.8509 15.6217 21.7645 15.5045 21.7008C15.3874 21.6371 15.2587 21.5975 15.126 21.5843C14.9933 21.5711 14.8593 21.5846 14.7319 21.6239H14.7279Z" fill="white"/>
</g>
<defs>
<clipPath id="clip0_477_4140">
<rect width="24" height="24" fill="white"/>
</clipPath>
</defs>
</svg>
